<?xml version="1.0" encoding="utf-8"?>
<!-- Generator: Adobe Illustrator 27.3.1, SVG Export Plug-In . SVG Version: 6.00 Build 0)  -->
<svg version="1.1" id="Layer_1" xmlns:xodm="http://www.corel.com/coreldraw/odm/2003"
	 xmlns="http://www.w3.org/2000/svg" xmlns:xlink="http://www.w3.org/1999/xlink" x="0px" y="0px" viewBox="0 0 400 225"
	 style="enable-background:new 0 0 400 225;" xml:space="preserve">
<style type="text/css">
	.st0{fill-rule:evenodd;clip-rule:evenodd;fill:#CCCCCC;}
	.st1{fill:#231F20;}
	.st2{font-family:'TiroDevaHindi-Regular';}
	.st3{font-size:50px;}
</style>
<rect class="st0" width="400" height="225"/>
<text transform="matrix(1 0 0 1 59.62 53.54)" class="st1 st2 st3">Intermediate</text>
<text transform="matrix(1 0 0 1 86.02 109.26)" class="st1 st2 st3">Marksheet</text>
<path class="st1" d="M233.2,127.4c3,0,5.4,2.6,5.4,5.9v70.2c0,3.2-2.4,5.9-5.4,5.9h-64.5c-3,0-5.4-2.6-5.4-5.9v-70.2
	c0-3.2,2.4-5.9,5.4-5.9L233.2,127.4L233.2,127.4z M168.7,121.6c-5.9,0-10.8,5.2-10.8,11.7v70.2c0,6.5,4.8,11.7,10.8,11.7h64.5
	c5.9,0,10.8-5.2,10.8-11.7v-70.2c0-6.5-4.8-11.7-10.8-11.7L168.7,121.6L168.7,121.6z M222,150.8c2.4,0,4.4-2,4.4-4.4s-2-4.4-4.4-4.4
	s-4.4,2-4.4,4.4S219.5,150.8,222,150.8z M214.6,159.7c0,0-1.5,0-1.5-1.5c0-1.5,1.5-5.9,8.9-5.9c7.4,0,8.8,4.4,8.8,5.9
	c0,1.5-1.5,1.5-1.5,1.5H214.6L214.6,159.7z M222,150.8c2.4,0,4.4-2,4.4-4.4s-2-4.4-4.4-4.4s-4.4,2-4.4,4.4S219.5,150.8,222,150.8z
	 M214.6,159.7c0,0-1.5,0-1.5-1.5c0-1.5,1.5-5.9,8.9-5.9c7.4,0,8.8,4.4,8.8,5.9c0,1.5-1.5,1.5-1.5,1.5H214.6L214.6,159.7z M222,150.8
	c2.4,0,4.4-2,4.4-4.4s-2-4.4-4.4-4.4s-4.4,2-4.4,4.4S219.5,150.8,222,150.8z M214.6,159.7c0,0-1.5,0-1.5-1.5c0-1.5,1.5-5.9,8.9-5.9
	c7.4,0,8.8,4.4,8.8,5.9c0,1.5-1.5,1.5-1.5,1.5H214.6L214.6,159.7z M222,150.8c2.4,0,4.4-2,4.4-4.4s-2-4.4-4.4-4.4s-4.4,2-4.4,4.4
	S219.5,150.8,222,150.8z M214.6,159.7c0,0-1.5,0-1.5-1.5c0-1.5,1.5-5.9,8.9-5.9c7.4,0,8.8,4.4,8.8,5.9c0,1.5-1.5,1.5-1.5,1.5H214.6
	L214.6,159.7z M219.8,165.7c0-1,0.8-1.8,1.8-1.8h7.2c1,0,1.8,0.8,1.8,1.8c0,1-0.8,1.8-1.8,1.8h-7.2
	C220.6,167.5,219.8,166.7,219.8,165.7z M219.8,172.9c0-1,0.8-1.8,1.8-1.8h7.2c1,0,1.8,0.8,1.8,1.8c0,1-0.8,1.8-1.8,1.8h-7.2
	C220.6,174.7,219.8,173.9,219.8,172.9z M219.8,180.1c0-1,0.8-1.8,1.8-1.8h7.2c1,0,1.8,0.8,1.8,1.8c0,1-0.8,1.8-1.8,1.8h-7.2
	C220.6,181.9,219.8,181.1,219.8,180.1z M219.8,187.3c0-1,0.8-1.8,1.8-1.8h7.2c1,0,1.8,0.8,1.8,1.8c0,1-0.8,1.8-1.8,1.8h-7.2
	C220.6,189.1,219.8,188.3,219.8,187.3z M219.8,194.5c0-1,0.8-1.8,1.8-1.8h7.2c1,0,1.8,0.8,1.8,1.8c0,1-0.8,1.8-1.8,1.8h-7.2
	C220.6,196.3,219.8,195.5,219.8,194.5z M173.1,144.1c0-1,0.8-1.8,1.8-1.8h32.4c1,0,1.8,0.8,1.8,1.8c0,1-0.8,1.8-1.8,1.8h-32.4
	C173.8,145.9,173.1,145.1,173.1,144.1z M173.1,151.3c0-1,0.8-1.8,1.8-1.8h28.8c1,0,1.8,0.8,1.8,1.8c0,1-0.8,1.8-1.8,1.8h-28.8
	C173.8,153.1,173.1,152.3,173.1,151.3z M173.1,158.6c0-1,0.7-1.8,1.6-1.8H206c0.9,0,1.6,0.8,1.6,1.8c0,1-0.7,1.8-1.6,1.8h-31.4
	C173.8,160.4,173.1,159.6,173.1,158.6z M173.1,165.7c0-1,0.8-1.8,1.8-1.8H200c1,0,1.8,0.8,1.8,1.8c0,1-0.8,1.8-1.8,1.8h-25.2
	C173.8,167.5,173.1,166.7,173.1,165.7z M173.1,172.9c0-1,0.8-1.8,1.8-1.8H200c1,0,1.8,0.8,1.8,1.8c0,1-0.8,1.8-1.8,1.8h-25.2
	C173.8,174.7,173.1,173.9,173.1,172.9z M173.1,180.1c0-1,0.8-1.8,1.8-1.8h32.4c1,0,1.8,0.8,1.8,1.8c0,1-0.8,1.8-1.8,1.8h-32.4
	C173.8,181.9,173.1,181.1,173.1,180.1z M173.1,187.3c0-1,0.8-1.8,1.8-1.8h18c1,0,1.8,0.8,1.8,1.8c0,1-0.8,1.8-1.8,1.8h-18
	C173.8,189.1,173.1,188.3,173.1,187.3z M173.1,194.5c0-1,0.8-1.8,1.8-1.8h36c1,0,1.8,0.8,1.8,1.8c0,1-0.8,1.8-1.8,1.8h-36
	C173.8,196.3,173.1,195.5,173.1,194.5z"/>
<g id="_3158249070400">
</g>
</svg>
