<?xml version="1.0" encoding="utf-8"?>
<!-- Generator: Adobe Illustrator 27.3.1, SVG Export Plug-In . SVG Version: 6.00 Build 0)  -->
<svg version="1.1" id="Layer_1" xmlns:xodm="http://www.corel.com/coreldraw/odm/2003"
	 xmlns="http://www.w3.org/2000/svg" xmlns:xlink="http://www.w3.org/1999/xlink" x="0px" y="0px" viewBox="0 0 400 225"
	 style="enable-background:new 0 0 400 225;" xml:space="preserve">
<style type="text/css">
	.st0{fill-rule:evenodd;clip-rule:evenodd;fill:#CCCCCC;}
	.st1{fill:#231F20;}
	.st2{font-family:'TiroDevaHindi-Regular';}
	.st3{font-size:50px;}
	.st4{fill:#999999;}
</style>
<rect class="st0" width="400" height="225"/>
<text transform="matrix(1 0 0 1 19.22 53.99)" class="st1 st2 st3">D.El.Ed Dummy </text>
<text transform="matrix(1 0 0 1 71.47 109.71)" class="st1 st2 st3">Admit Card</text>
<g id="_3156949817280">
	<path class="st4" d="M174,187.3c1.2,1.2,3.1,1.2,4.8-0.6l38.8-38.8c1.8-1.8,1.7-3.6,0.6-4.8c-1.2-1.2-3-1.2-4.8,0.6l-38.8,38.8
		C172.8,184.2,172.8,186.1,174,187.3L174,187.3L174,187.3z"/>
	<path class="st4" d="M188.9,198c1.2,1.2,3.1,1.2,4.8-0.6l38.8-38.8c1.8-1.8,1.7-3.6,0.6-4.8c-1.2-1.2-3-1.2-4.8,0.6l-38.8,38.8
		C187.8,194.9,187.7,196.8,188.9,198L188.9,198L188.9,198z"/>
	<path class="st1" d="M171.8,186.5c0,1.7,1.4,3,3.9,3h54.9c2.5,0,3.8-1.3,3.8-3c0-1.7-1.3-3-3.8-3h-54.9
		C173.2,183.5,171.8,184.8,171.8,186.5z"/>
	<path class="st1" d="M171.8,175c0,1.7,1.4,3,3.9,3h54.9c2.5,0,3.8-1.3,3.8-3c0-1.7-1.3-3-3.8-3h-54.9
		C173.2,172,171.8,173.3,171.8,175z"/>
	<path class="st1" d="M171.8,163.5c0,1.7,1.4,3,3.9,3h54.9c2.5,0,3.8-1.3,3.8-3s-1.3-3-3.8-3h-54.9
		C173.2,160.5,171.8,161.8,171.8,163.5z"/>
	<path class="st1" d="M192.5,150.2c0,1.7,1.3,3,3,3h36c1.7,0,3-1.3,3-3s-1.3-3-3-3h-36C193.8,147.2,192.5,148.5,192.5,150.2z"/>
	<path class="st1" d="M192.5,138.2c0,1.7,1.3,3,3,3h36c1.7,0,3-1.3,3-3s-1.3-3-3-3h-36C193.8,135.2,192.5,136.5,192.5,138.2z"/>
	<path class="st1" d="M170.1,153.5c0,0-1.7,0-1.7-1.7c0-1.7,1.7-6.8,10.1-6.8c8.4,0,10.1,5.1,10.1,6.8c0,1.7-1.7,1.7-1.7,1.7H170.1
		L170.1,153.5z"/>
	<path class="st1" d="M178.6,143.3c2.8,0,5.1-2.3,5.1-5.1s-2.3-5.1-5.1-5.1c-2.8,0-5.1,2.3-5.1,5.1S175.8,143.3,178.6,143.3z"/>
	<path class="st1" d="M235.2,127.9c3,0,5.4,2.6,5.4,5.7V202c0,3.1-2.4,5.7-5.4,5.7h-64.4c-3,0-5.4-2.6-5.4-5.7v-68.4
		c0-3.1,2.4-5.7,5.4-5.7H235.2z M170.8,122.2c-5.9,0-10.7,5.1-10.7,11.4V202c0,6.3,4.8,11.4,10.7,11.4h64.4
		c5.9,0,10.7-5.1,10.7-11.4v-68.4c0-6.3-4.8-11.4-10.7-11.4H170.8z"/>
	<path class="st1" d="M171.8,198c0,1.7,1.4,3,3.9,3h54.9c2.5,0,3.8-1.3,3.8-3s-1.3-3-3.8-3h-54.9C173.2,195,171.8,196.4,171.8,198z"
		/>
</g>
</svg>
