<?xml version="1.0" encoding="utf-8"?>
<!-- Generator: Adobe Illustrator 27.3.1, SVG Export Plug-In . SVG Version: 6.00 Build 0)  -->
<svg version="1.1" id="Layer_1" xmlns:xodm="http://www.corel.com/coreldraw/odm/2003"
	 xmlns="http://www.w3.org/2000/svg" xmlns:xlink="http://www.w3.org/1999/xlink" x="0px" y="0px" viewBox="0 0 400 225"
	 style="enable-background:new 0 0 400 225;" xml:space="preserve">
<style type="text/css">
	.st0{fill-rule:evenodd;clip-rule:evenodd;fill:#CCCCCC;}
	.st1{fill:#231F20;}
	.st2{font-family:'TiroDevaHindi-Regular';}
	.st3{font-size:50px;}
</style>
<rect class="st0" width="400" height="225"/>
<text transform="matrix(1 0 0 1 86.84 53.47)" class="st1 st2 st3">Residence</text>
<text transform="matrix(1 0 0 1 83.19 109.19)" class="st1 st2 st3">Certificate</text>
<path class="st1" d="M167.3,211.2c-3.1,0-5.6-2.7-5.6-6.1v-73.3c0-3.4,2.5-6.1,5.6-6.1h67.3c3.1,0,5.6,2.7,5.6,6.1v73.3
	c0,3.4-2.5,6.1-5.6,6.1H167.3z M234.6,217.3c6.2,0,11.2-5.5,11.2-12.2v-73.3c0-6.8-5-12.2-11.2-12.2h-67.3
	c-6.2,0-11.2,5.5-11.2,12.2v73.3c0,6.8,5,12.2,11.2,12.2H234.6z M169.1,150.5c0-1,0.8-1.9,1.9-1.9h26.3c1,0,1.9,0.8,1.9,1.9
	c0,1.1-0.8,1.9-1.9,1.9H171C169.9,152.4,169.1,151.5,169.1,150.5z M169.1,141.1c0-1,0.8-1.9,1.9-1.9h26.3c1,0,1.9,0.8,1.9,1.9
	c0,1.1-0.8,1.9-1.9,1.9H171C169.9,143,169.1,142.1,169.1,141.1z M171.1,180.5h59.7c2.7,0,2.7,3.3-0.1,3.3h-59.4
	C168.4,183.8,168.4,180.5,171.1,180.5z M171.1,187.2h59.6c2.8,0,2.7,3.3-0.1,3.3h-59.4C168.4,190.5,168.4,187.2,171.1,187.2
	L171.1,187.2z M171.1,193.9h59.7c2.7,0,2.7,3.3-0.1,3.3h-59.4C168.4,197.2,168.4,193.9,171.1,193.9z M171.1,200.6h59.7
	c2.7,0,2.7,3.3-0.1,3.3h-59.5C168.4,203.9,168.4,200.6,171.1,200.6L171.1,200.6z M217.9,145.4c-0.7-0.7-1.8-0.7-2.5,0l-11.7,11.8
	c-0.4,0.3-0.4,0.9,0,1.2c0.3,0.4,0.9,0.4,1.2,0l11.8-11.7l11.8,11.7c0.3,0.4,0.9,0.4,1.2,0c0.4-0.3,0.4-0.9,0-1.2l-4.1-4.2v-5.8
	c0-0.5-0.4-0.9-0.9-0.9h-1.8c-0.5,0-0.9,0.4-0.9,0.9v2.3L217.9,145.4L217.9,145.4L217.9,145.4z M216.7,148.6l8.3,8.3
	c-0.1,0-0.2,0-0.4,0c-4.4,0-7.9,3.6-7.9,7.9c0,1.6,0.5,3.1,1.3,4.4h-9.3c-1.5,0-2.6-1.2-2.6-2.7v-7.4L216.7,148.6L216.7,148.6
	L216.7,148.6z M224.6,171c3.4,0,6.2-2.8,6.2-6.2c0-3.4-2.8-6.2-6.2-6.2s-6.2,2.8-6.2,6.2C218.5,168.3,221.2,171,224.6,171z
	 M227.6,163.1l-2.4,3.9c-0.4,0.8-1.4,0.9-2.1,0.3l-1.4-1.4c-0.4-0.3-0.4-0.9,0-1.2c0.3-0.4,0.9-0.4,1.2,0l1,1l2.1-3.4
	c0.2-0.4,0.8-0.5,1.2-0.3C227.7,162.1,227.9,162.7,227.6,163.1L227.6,163.1L227.6,163.1z"/>
</svg>
