<?xml version="1.0" encoding="utf-8"?>
<!-- Generator: Adobe Illustrator 27.3.1, SVG Export Plug-In . SVG Version: 6.00 Build 0)  -->
<svg version="1.1" id="Layer_1" xmlns:xodm="http://www.corel.com/coreldraw/odm/2003"
	 xmlns="http://www.w3.org/2000/svg" xmlns:xlink="http://www.w3.org/1999/xlink" x="0px" y="0px" viewBox="0 0 400 225"
	 style="enable-background:new 0 0 400 225;" xml:space="preserve">
<style type="text/css">
	.st0{fill-rule:evenodd;clip-rule:evenodd;fill:#CCCCCC;}
	.st1{fill:#231F20;}
	.st2{font-family:'TiroDevaHindi-Regular';}
	.st3{font-size:50px;}
	.st4{fill:none;stroke:#231F20;stroke-width:2.08;stroke-linecap:round;stroke-linejoin:round;stroke-miterlimit:2.6131;}
</style>
<rect class="st0" width="400" height="225"/>
<text transform="matrix(1 0 0 1 53.91 57.37)" class="st1 st2 st3">Intermediate</text>
<text transform="matrix(1 0 0 1 69.58 113.09)" class="st1 st2 st3">Admit Card</text>
<polygon class="st4" points="210.5,141.1 228.3,141.1 228.3,162.9 210.5,162.9 "/>
<g>
	<path class="st1" d="M229.5,166.9c0,1.5-1.2,2.7-3.5,2.7h-50c-2.3,0-3.4-1.2-3.4-2.7c0-1.5,1.2-2.7,3.4-2.7h50
		C228.2,164.2,229.5,165.4,229.5,166.9z M229.5,177.4c0,1.5-1.2,2.7-3.5,2.7h-50c-2.3,0-3.4-1.2-3.4-2.7c0-1.5,1.2-2.7,3.4-2.7h50
		C228.2,174.6,229.5,175.8,229.5,177.4z M229.5,187.9c0,1.5-1.2,2.7-3.5,2.7h-50c-2.3,0-3.4-1.2-3.4-2.7c0-1.5,1.2-2.7,3.4-2.7h50
		C228.2,185.1,229.5,186.3,229.5,187.9z M229.5,198.4c0,1.5-1.2,2.7-3.5,2.7h-50c-2.3,0-3.4-1.2-3.4-2.7s1.2-2.7,3.4-2.7h50
		C228.2,195.6,229.5,196.8,229.5,198.4z"/>
	<path class="st1" d="M206.9,144.1c0,1.5-1.1,2.7-2.4,2.7H175c-1.4,0-2.4-1.2-2.4-2.7s1.1-2.7,2.4-2.7h29.5
		C205.9,141.3,206.9,142.5,206.9,144.1z M206.9,155c0,1.5-1.1,2.7-2.4,2.7H175c-1.4,0-2.4-1.2-2.4-2.7c0-1.5,1.1-2.7,2.4-2.7h29.5
		C205.9,152.3,206.9,153.5,206.9,155z"/>
	<path class="st1" d="M233,127.6c3,0,5.4,2.6,5.4,5.8v70c0,3.2-2.4,5.8-5.4,5.8h-64.2c-3,0-5.4-2.6-5.4-5.8v-70
		c0-3.2,2.4-5.8,5.4-5.8L233,127.6L233,127.6z M168.8,121.8c-5.9,0-10.7,5.2-10.7,11.6v70c0,6.4,4.8,11.7,10.7,11.7H233
		c5.9,0,10.7-5.2,10.7-11.7v-70c0-6.4-4.8-11.6-10.7-11.6L168.8,121.8L168.8,121.8z"/>
	<path class="st1" d="M219.4,152c2.1,0,3.9-1.7,3.9-3.9s-1.7-3.9-3.9-3.9c-2.1,0-3.9,1.7-3.9,3.9S217.3,152,219.4,152z M213,159.7
		c0,0-1.3,0-1.3-1.3s1.3-5.1,7.7-5.1c6.4,0,7.7,3.9,7.7,5.1s-1.3,1.3-1.3,1.3H213z"/>
</g>
</svg>
