<?xml version="1.0" encoding="utf-8"?>
<!-- Generator: Adobe Illustrator 27.3.1, SVG Export Plug-In . SVG Version: 6.00 Build 0)  -->
<svg version="1.1" id="Layer_1" xmlns:xodm="http://www.corel.com/coreldraw/odm/2003"
	 xmlns="http://www.w3.org/2000/svg" xmlns:xlink="http://www.w3.org/1999/xlink" x="0px" y="0px" viewBox="0 0 400 225"
	 style="enable-background:new 0 0 400 225;" xml:space="preserve">
<style type="text/css">
	.st0{fill-rule:evenodd;clip-rule:evenodd;fill:#CCCCCC;}
	.st1{fill:#231F20;}
	.st2{font-family:'TiroDevaHindi-Regular';}
	.st3{font-size:50px;}
	.st4{fill:none;stroke:#231F20;stroke-width:2.08;stroke-linecap:round;stroke-linejoin:round;stroke-miterlimit:2.6131;}
	.st5{fill-rule:evenodd;clip-rule:evenodd;fill:#231F20;}
	.st6{fill:none;stroke:#231F20;stroke-width:6.25;stroke-linecap:round;stroke-linejoin:round;stroke-miterlimit:2.6131;}
</style>
<rect class="st0" width="400" height="225"/>
<text transform="matrix(1 0 0 1 98.92 53.47)" class="st1 st2 st3">Pan Card</text>
<path class="st1" d="M119.1,118.2c3.4,0,6.1-2.8,6.1-6.3s-2.7-6.3-6.1-6.3c-3.4,0-6.1,2.8-6.1,6.3S115.7,118.2,119.1,118.2z
	 M108.9,130.9c0,0-2.1,0-2.1-2.1c0-2.1,2.1-8.5,12.3-8.5c10.2,0,12.3,6.3,12.3,8.5c0,2.1-2.1,2.1-2.1,2.1H108.9L108.9,130.9z"/>
<path class="st4" d="M107,101.1h24.1c1.1,0,2.1,0.9,2.1,2.1v29.3c0,1.1-0.9,2.1-2.1,2.1H107c-1.1,0-2.1-0.9-2.1-2.1v-29.3
	C105,102.1,105.9,101.1,107,101.1z"/>
<path class="st5" d="M104.9,191.2c0-1.1,1.3-2,3.1-2h30.4c1.7,0,3,0.9,3,2c0,1.1-1.3,2-3,2H108C106.3,193.2,105,192.3,104.9,191.2z
	 M107.1,165.3h64.3c2.9,0,2.9,3.5-0.1,3.6h-64.1C104.1,168.9,104.1,165.3,107.1,165.3C107.1,165.3,107.1,165.3,107.1,165.3z
	 M169.2,111.3h64.3c3,0,2.9,3.5-0.1,3.6h-64.1C166.3,114.8,166.3,111.3,169.2,111.3L169.2,111.3z M105,146.7c0-1.1,1.3-2,3.1-2h42.5
	c1.7,0,3,0.9,3,2c0,1.1-1.3,2-3,2H108C106.3,148.7,104.9,147.8,105,146.7z"/>
<path class="st1" d="M265.3,148.3h4.5v4.6h-4.5V148.3z M274.4,143.8v13.7h-13.7v-13.7H274.4z M272.2,146.1h-9.1v9.1h9.1V146.1z
	 M269.9,171.1h-4.5v4.6h4.5V171.1z M274.4,166.6v13.7h-13.7v-13.7H274.4z M263.1,168.8v9.1h9.1v-9.1H263.1z M288.1,148.3h4.5v4.6
	h-4.5V148.3z M283.6,143.8v13.7h13.7v-13.7H283.6z M294.9,146.1v9.1h-9.1v-9.1H294.9z M279,146.1v-2.3h2.3v4.6H279v4.6h-2.3v-6.8
	H279z M279,157.4v-4.6h2.3v4.6H279z M274.4,162v-2.3h2.3v-2.3h2.3v4.6h2.3v-2.3h11.4v2.3h-9.1v2.3h-6.8V162H274.4L274.4,162z
	 M274.4,162v2.3h-9.1V162h-2.3v2.3h-2.3v-4.6h6.9v2.3L274.4,162L274.4,162z M297.2,164.3h-2.3v-4.6h2.3V164.3z M294.9,164.3h-2.3
	v4.5h4.6v-2.3h-2.3V164.3z M285.8,164.3h4.6v2.3h-2.3v2.3h-2.3V164.3z M290.4,171.1v-2.3h-2.3v2.3h-2.3v2.3h-4.6v2.3h6.8v-4.6
	L290.4,171.1L290.4,171.1z M290.4,171.1h6.8v2.3h-4.6v2.3h-2.3V171.1L290.4,171.1z M281.3,168.8v2.3h2.3v-4.5h-6.8v2.3H281.3z
	 M276.7,171.1h2.3v6.9h9.1v2.3h-11.4L276.7,171.1L276.7,171.1z M297.2,175.7v4.6h-6.8V178h4.5v-2.3H297.2z"/>
<path class="st6" d="M115.2,68.9h171.5c11.8,0,21.4,9.7,21.4,21.4v100.1c0,11.8-9.6,21.4-21.4,21.4H115.2
	c-11.8,0-21.4-9.6-21.4-21.4V90.4C93.7,78.6,103.4,68.9,115.2,68.9z"/>
</svg>
