<?xml version="1.0" encoding="utf-8"?>
<!-- Generator: Adobe Illustrator 27.3.1, SVG Export Plug-In . SVG Version: 6.00 Build 0)  -->
<svg version="1.1" id="Layer_1" xmlns:xodm="http://www.corel.com/coreldraw/odm/2003"
	 xmlns="http://www.w3.org/2000/svg" xmlns:xlink="http://www.w3.org/1999/xlink" x="0px" y="0px" viewBox="0 0 400 225"
	 style="enable-background:new 0 0 400 225;" xml:space="preserve">
<style type="text/css">
	.st0{fill-rule:evenodd;clip-rule:evenodd;fill:#CCCCCC;}
	.st1{fill:#231F20;}
	.st2{font-family:'TiroDevaHindi-Regular';}
	.st3{font-size:50px;}
</style>
<rect class="st0" width="400" height="225"/>
<text transform="matrix(1 0 0 1 115.06 57.37)" class="st1 st2 st3">Income</text>
<text transform="matrix(1 0 0 1 82.76 113.09)" class="st1 st2 st3">Certificate</text>
<path class="st1" d="M248.9,131.5c2.1,0,3.7,1.6,3.7,3.7v66.4c0,2.1-1.6,3.7-3.7,3.7h-96c-2,0-3.7-1.6-3.7-3.7v-66.4
	c0-2.1,1.6-3.7,3.7-3.7H248.9z M152.9,124.1c-6.1,0-11.1,5-11.1,11.1v66.4c0,6.1,5,11.1,11.1,11.1h96c6.1,0,11.1-4.9,11.1-11.1
	v-66.4c0-6.1-4.9-11.1-11.1-11.1C248.9,124.1,152.9,124.1,152.9,124.1z M161.8,197.1c0,2.1,1.9,3.7,4.1,3.7h74.4
	c2.3,0,4.1-1.6,4.1-3.7s-1.8-3.7-4.1-3.7h-74.4C163.7,193.4,161.8,195,161.8,197.1L161.8,197.1z M161.8,184.8c0,2.1,1.9,3.7,4.1,3.7
	h74.4c2.3,0,4.1-1.6,4.1-3.7c0-2.1-1.8-3.7-4.1-3.7h-74.4C163.7,181.1,161.8,182.7,161.8,184.8L161.8,184.8z M185.9,172.5
	c0,2.1,1.9,3.7,4.1,3.7h49.6c2.3,0,4.1-1.6,4.1-3.7c0-2.1-1.8-3.7-4.1-3.7H190C187.7,168.9,185.9,170.5,185.9,172.5z M185.9,160.1
	c0,2.1,1.9,3.7,4.1,3.7h49.6c2.3,0,4.1-1.6,4.1-3.7c0-2.1-1.8-3.7-4.1-3.7H190C187.7,156.5,185.9,158.1,185.9,160.1z M185.9,148.2
	c0,2.1,1.9,3.7,4.1,3.7h49.6c2.3,0,4.1-1.6,4.1-3.7c0-2.1-1.8-3.7-4.1-3.7H190C187.7,144.5,185.9,146.1,185.9,148.2z M163.6,148.3
	h6.4c2.9,0,4.9,1.3,5.4,4h-11.8v2.5h11.8c-0.4,2.7-2.4,4-5.3,4h-6.5v3.1l10.4,12h4.9l-10.4-11.9h2c5.4,0,8.1-3.4,8.6-7.1h3.2v-2.5
	h-3.1c-0.2-1.8-0.8-3.1-1.9-4h5v-2.4h-18.7L163.6,148.3L163.6,148.3L163.6,148.3z"/>
</svg>
