<?xml version="1.0" encoding="utf-8"?>
<!-- Generator: Adobe Illustrator 27.3.1, SVG Export Plug-In . SVG Version: 6.00 Build 0)  -->
<svg version="1.1" id="Layer_1" xmlns:xodm="http://www.corel.com/coreldraw/odm/2003"
	 xmlns="http://www.w3.org/2000/svg" xmlns:xlink="http://www.w3.org/1999/xlink" x="0px" y="0px" viewBox="0 0 400 225"
	 style="enable-background:new 0 0 400 225;" xml:space="preserve">
<style type="text/css">
	.st0{fill-rule:evenodd;clip-rule:evenodd;fill:#CCCCCC;}
	.st1{fill:#231F20;}
	.st2{font-family:'TiroDevaHindi-Regular';}
	.st3{font-size:50px;}
</style>
<rect class="st0" width="400" height="225"/>
<text transform="matrix(1 0 0 1 152.22 61.89)" class="st1 st2 st3">B.Sc </text>
<text transform="matrix(1 0 0 1 62.3 125.56)" class="st1 st2 st3">Registration </text>
<text transform="matrix(1 0 0 1 145.82 189.24)" class="st1 st2 st3">Card</text>
<g id="_3158195649888">
</g>
<path class="st1" d="M274.2,161.5c0-3.4,2.8-6.2,6.2-6.2h37.5c3.4,0,6.3,2.8,6.3,6.2v25c0,3.5-2.8,6.2-6.3,6.2h-37.5
	c-3.4,0-6.2-2.8-6.2-6.2V161.5z M302.3,166.2c0,0.9,0.7,1.6,1.6,1.6h12.5c0.9,0,1.6-0.7,1.6-1.6s-0.7-1.6-1.6-1.6h-12.5
	C303,164.7,302.3,165.4,302.3,166.2z M302.3,174c0,0.9,0.7,1.6,1.6,1.6h12.5c0.9,0,1.6-0.7,1.6-1.6c0-0.9-0.7-1.6-1.6-1.6h-12.5
	C303,172.5,302.3,173.2,302.3,174z M305.4,181.9c0,0.9,0.7,1.6,1.6,1.6h9.4c0.9,0,1.6-0.7,1.6-1.6c0-0.9-0.7-1.6-1.6-1.6H307
	C306.1,180.3,305.4,181,305.4,181.9z M302.3,188.1c0-6-5.6-10.9-12.5-10.9c-6.5,0-11.9,4.4-12.4,9.9c0.2,1.5,1.5,2.6,3.1,2.6h21.8
	C302.2,189.2,302.3,188.6,302.3,188.1z M296,167.8c0-3.4-2.8-6.2-6.2-6.2s-6.2,2.8-6.2,6.2c0,3.5,2.8,6.2,6.2,6.2
	S296,171.3,296,167.8z"/>
</svg>
