<?xml version="1.0" encoding="utf-8"?>
<!-- Generator: Adobe Illustrator 27.3.1, SVG Export Plug-In . SVG Version: 6.00 Build 0)  -->
<svg version="1.1" id="Layer_1" xmlns:xodm="http://www.corel.com/coreldraw/odm/2003"
	 xmlns="http://www.w3.org/2000/svg" xmlns:xlink="http://www.w3.org/1999/xlink" x="0px" y="0px" viewBox="0 0 400 225"
	 style="enable-background:new 0 0 400 225;" xml:space="preserve">
<style type="text/css">
	.st0{fill-rule:evenodd;clip-rule:evenodd;fill:#CCCCCC;}
	.st1{fill:none;stroke:#231F20;stroke-width:6.25;stroke-linecap:round;stroke-linejoin:round;stroke-miterlimit:2.6131;}
	.st2{fill:#231F20;}
	.st3{font-family:'ArialMT';}
	.st4{font-size:50px;}
	.st5{fill:none;stroke:#231F20;stroke-width:2.36;stroke-linecap:round;stroke-linejoin:round;stroke-miterlimit:2.6131;}
</style>
<rect class="st0" width="400" height="225"/>
<path id="card" class="st1" d="M115.2,68.9h171.5c11.8,0,21.4,9.7,21.4,21.4v100.1c0,11.8-9.6,21.4-21.4,21.4H115.2
	c-11.8,0-21.4-9.6-21.4-21.4V90.4C93.7,78.6,103.4,68.9,115.2,68.9z"/>
<g transform="matrix(1 0 0 1 -152.006 -58.9938)">
	<text transform="matrix(1 0 0 1 200 112.5)" class="st2 st3 st4">Aadhaar Card</text>
</g>
<path class="st5" d="M110.2,101.3H144c1.6,0,2.9,1.3,2.9,2.9v41.2c0,1.6-1.3,2.9-2.9,2.9h-33.9c-1.6,0-2.9-1.3-2.9-2.9v-41.2
	C107.2,102.7,108.6,101.3,110.2,101.3z"/>
<path class="st2" d="M150.1,140.3c0-0.9,0.8-1.7,1.9-1.7h26.7c1.1,0,1.9,0.7,1.9,1.7c0,0.9-0.8,1.7-1.9,1.7H152
	C150.9,142,150.1,141.3,150.1,140.3z M254,141.7h4.8v4.9H254L254,141.7L254,141.7z M263.7,136.9v14.6h-14.6v-14.6H263.7z
	 M261.3,139.3h-9.7v9.7h9.7V139.3z M258.9,166H254v4.9h4.9V166z M263.7,161.1v14.5h-14.6v-14.5H263.7z M251.6,163.6v9.7h9.7v-9.7
	H251.6L251.6,163.6z M278.3,141.7h4.9v4.9h-4.9V141.7z M273.4,136.9v14.6H288v-14.6H273.4z M285.6,139.3v9.7h-9.7v-9.7H285.6z
	 M268.6,139.3v-2.4h2.4v4.9h-2.4v4.9h-2.4v-7.3H268.6L268.6,139.3z M268.6,151.4v-4.9h2.4v4.9H268.6z M263.7,156.3v-2.4h2.4v-2.4
	h2.4v4.9h2.4v-2.4h12.1v2.4h-9.7v2.4h-7.3v-2.4L263.7,156.3L263.7,156.3z M263.7,156.3v2.4H254v-2.4h-2.4v2.4h-2.4v-4.9h7.3v2.4
	L263.7,156.3L263.7,156.3L263.7,156.3z M288,158.7h-2.4v-4.9h2.4V158.7z M285.6,158.7h-2.4v4.9h4.9v-2.4h-2.4V158.7z M275.9,158.7
	h4.9v2.4h-2.4v2.4h-2.4L275.9,158.7L275.9,158.7z M280.7,166v-2.4h-2.4v2.4h-2.4v2.4H271v2.4h7.3V166H280.7L280.7,166L280.7,166z
	 M280.7,166h7.3v2.4h-4.9v2.4h-2.4L280.7,166L280.7,166L280.7,166z M271,163.6v2.4h2.4v-4.9h-7.3v2.4L271,163.6L271,163.6L271,163.6
	z M266.1,166h2.4v7.3h9.7v2.4h-12.1L266.1,166L266.1,166z M288,170.9v4.8h-7.3v-2.4h4.8v-2.4H288L288,170.9z M152,118h57.3
	c2.6,0,2.6,3.3-0.1,3.3h-57.1C149.4,121.3,149.4,118,152,118L152,118z M246.3,113.4c0.4-0.2,0.7-0.5,0.9-0.8
	c0.3-0.4,0.7-0.8,1.1-1.2c0.5-0.4,1.2-0.8,2-0.9c-0.2,0.9-0.3,1.9-0.3,2.9L246.3,113.4L246.3,113.4L246.3,113.4z M249.1,102.9
	L249.1,102.9L249.1,102.9c0.4,0,0.8-0.1,1.2-0.3c0.5-0.2,1-0.4,1.5-0.4c0.6-0.1,1.4-0.1,2.2,0.2c-1.3,1.5-2.3,3.2-2.9,5.1
	c-0.7-0.5-1-1.2-1.3-1.8c-0.2-0.5-0.3-1-0.4-1.6C249.4,103.7,249.3,103.3,249.1,102.9L249.1,102.9z M256.8,95.3L256.8,95.3
	L256.8,95.3c0.3,0.2,0.8,0.3,1.2,0.4c0.5,0.1,1,0.2,1.5,0.4c0.6,0.2,1.3,0.6,1.8,1.3c-1.9,0.7-3.6,1.7-5.1,2.9
	c-0.3-0.8-0.3-1.6-0.2-2.2c0.1-0.5,0.3-1,0.5-1.5C256.6,96.1,256.8,95.7,256.8,95.3L256.8,95.3z M267.2,92.5L267.2,92.5L267.2,92.5
	c0.2,0.4,0.5,0.6,0.9,0.9c0.4,0.3,0.8,0.7,1.1,1.1c0.4,0.5,0.8,1.2,0.9,2c-1-0.2-1.9-0.2-2.9-0.2s-2,0.1-2.9,0.2
	c0.1-0.8,0.5-1.5,0.9-2c0.3-0.4,0.7-0.8,1.2-1.1C266.7,93.1,267,92.8,267.2,92.5z M277.7,95.3L277.7,95.3L277.7,95.3
	c0,0.4,0.1,0.8,0.3,1.2c0.2,0.5,0.4,1,0.5,1.5c0.1,0.6,0.1,1.4-0.2,2.2c-1.5-1.2-3.2-2.2-5.1-2.9c0.5-0.7,1.2-1.1,1.8-1.3
	c0.5-0.2,1-0.3,1.5-0.4C276.9,95.6,277.3,95.5,277.7,95.3L277.7,95.3z M285.4,102.9L285.4,102.9L285.4,102.9
	c-0.2,0.4-0.3,0.8-0.4,1.2c-0.1,0.5-0.2,1.1-0.4,1.6c-0.2,0.6-0.6,1.3-1.3,1.8c-0.7-1.9-1.7-3.6-2.9-5.1c0.8-0.3,1.6-0.3,2.2-0.2
	c0.5,0.1,1,0.3,1.5,0.4C284.5,102.8,284.9,103,285.4,102.9L285.4,102.9z M284.1,110.5c0.8,0.1,1.5,0.5,2,0.9
	c0.4,0.3,0.8,0.7,1.1,1.2c0.3,0.3,0.6,0.7,0.9,0.8h-3.8C284.4,112.4,284.3,111.4,284.1,110.5L284.1,110.5z M272.2,98.4
	c6.3,2.1,10.9,8,10.9,15.1H280C280.2,107.3,277.5,101.8,272.2,98.4z M272.9,113.4h1.6c0.1-1.8-0.1-3.9-0.6-5.7
	c-0.1-0.4-0.2-0.7-0.4-1.1c-0.3-0.8-0.8-1.5-1.4-2.2c-0.6-0.7-1.4-1.4-2.2-1.9c-0.2-0.2-0.5-0.3-0.8-0.4l0,0
	c-0.2-0.1-0.5-0.2-0.8-0.3l0,0c-3.2-1.1-6.4-0.3-9.1,1.1c-0.5,0.3-1,0.6-1.5,0.9c-0.5,0.3-0.9,0.7-1.4,1l0,0l0,0
	c-0.5,0.4-1.2,1-1.8,1.6c-0.1,0.1-0.2,0.3-0.4,0.4c-0.3,0.4-0.8,0.9-0.7,1.4c0.1,0.4,0.6,0.3,0.8,0.2c0.3-0.2,0.6-0.4,0.9-0.6
	c0.4-0.3,0.7-0.7,1.1-1c1.5-1.3,3-2.2,4.5-2.9c0.3-0.1,0.7-0.3,1-0.4c0.3-0.1,0.6-0.2,1-0.3l0,0c2.8-0.7,5.8-0.2,7.8,2
	C272.5,107.6,272.8,110.5,272.9,113.4L272.9,113.4z M252.7,110.9c0.2-0.2,0.4-0.4,0.5-0.6c0.3-0.3,0.3-0.6,0.2-0.9
	c0-0.1-0.1-0.2-0.2-0.2c-0.1-0.1-0.1-0.1-0.2-0.1c-0.2-0.1-0.5,0-0.7,0.3c-0.2,0.3-0.6,0.8-0.6,1.2c0,0.1,0,0.2,0,0.2
	c0,0.1,0,0.1,0.1,0.2l0,0l0,0c0.1,0.1,0.1,0.2,0.3,0.2c0,0,0.1,0,0.1,0c0,0,0.1,0,0.1,0l0,0l0,0
	C252.4,111.2,252.5,111.1,252.7,110.9z M269.5,113.4h1.6c0.1-1.9-0.2-3.9-1.1-5.6c-0.8-1.6-2.1-2.6-3.9-2.8c-2.5-0.4-5,0.7-7.2,2.2
	c-2.3,1.7-4.3,3.9-5.9,6.2h2.1c1.9-2.7,6.3-6.8,9.6-6.9c1,0,2.1,0.2,2.9,0.9c0.6,0.5,1.2,1.5,1.2,2.3c0,0.5-0.4,0.6-0.8,0.5
	c-0.3-0.1-0.5-0.4-0.7-0.7c-0.7-1-1.8-1.4-3-1.3c-1.5,0.2-3.2,1.3-4.4,2.3c-1,0.9-1.9,1.8-2.8,2.8h2.3c0.8-1,1.7-1.9,2.9-2.6
	c0.4-0.2,0.8-0.4,1.3-0.6c1.2-0.4,2.4-0.3,2.9,1.2c0.2,0.6,0.2,1.1,0.2,2v0h1.5l0-0.1c0-0.5,0-0.8,0-1.3c0-0.4,0.2-0.9,0.6-0.9
	C269.6,110.9,269.5,112.8,269.5,113.4L269.5,113.4L269.5,113.4z M258.6,118.3h-1.3l-0.3,1.1h-1l1.3-4.2h1.3l1.4,4.2h-1L258.6,118.3
	L258.6,118.3L258.6,118.3z M257.4,117.6h1c-0.2-0.8-0.4-1.4-0.5-1.7h0l-0.2,0.8L257.4,117.6L257.4,117.6z M253.9,118.3h-1.3
	l-0.3,1.1h-1l1.3-4.2h1.3l1.4,4.2h-1.1L253.9,118.3L253.9,118.3L253.9,118.3z M252.8,117.6h1c-0.2-0.8-0.4-1.4-0.5-1.7h0l-0.2,0.8
	L252.8,117.6L252.8,117.6z M260.9,119.4v-4.2c0.4-0.1,0.9-0.1,1.3-0.1c0.9,0,1.5,0.2,1.9,0.6c0.4,0.4,0.6,0.9,0.6,1.5
	c0,0.7-0.2,1.3-0.6,1.7c-0.5,0.4-1.1,0.6-2.1,0.6C261.6,119.5,261.2,119.5,260.9,119.4L260.9,119.4L260.9,119.4z M261.9,116v2.8
	c0,0,0.2,0,0.4,0c0.5,0,0.9-0.1,1.1-0.4c0.3-0.2,0.4-0.6,0.4-1.1c0-0.4-0.1-0.8-0.4-1c-0.2-0.2-0.6-0.3-1-0.3
	C262.2,115.9,262,115.9,261.9,116L261.9,116z M265.8,115.2h1v1.6h1.7v-1.6h1v4.2h-1v-1.8h-1.7v1.8h-1V115.2z M273,118.3h-1.3
	l-0.3,1.1h-1l1.3-4.2h1.3l1.4,4.2h-1.1L273,118.3L273,118.3z M271.8,117.6h1c-0.3-0.8-0.4-1.4-0.5-1.7h0l-0.2,0.8L271.8,117.6
	L271.8,117.6L271.8,117.6z M277.6,118.3h-1.3l-0.3,1.1h-1l1.4-4.2h1.3l1.4,4.2h-1L277.6,118.3L277.6,118.3L277.6,118.3z
	 M276.5,117.6h1c-0.2-0.8-0.4-1.4-0.5-1.7h0l-0.2,0.8L276.5,117.6L276.5,117.6L276.5,117.6z M280,119.4v-4.2
	c0.4-0.1,0.8-0.1,1.3-0.1c0.6,0,1.1,0.1,1.4,0.3c0.3,0.2,0.4,0.5,0.4,0.9c0,0.2-0.1,0.4-0.2,0.6c-0.1,0.2-0.3,0.3-0.5,0.4v0
	c0.3,0.1,0.5,0.4,0.6,0.8c0.2,0.8,0.3,1.2,0.4,1.2h-1c-0.1-0.2-0.2-0.5-0.3-1c-0.1-0.2-0.1-0.4-0.2-0.5c-0.1-0.1-0.2-0.2-0.5-0.2
	h-0.3v1.7L280,119.4L280,119.4L280,119.4z M280.9,115.9v1.2h0.4c0.2,0,0.4-0.1,0.6-0.2s0.2-0.3,0.2-0.4c0-0.2-0.1-0.3-0.2-0.4
	c-0.1-0.1-0.3-0.2-0.5-0.2S281,115.9,280.9,115.9L280.9,115.9z M263.7,113.4h1.3c0.2-1.1-0.2-1.9-1.3-1.7c-0.9,0.2-1.9,1.1-2.5,1.7
	l1.7,0c0.2-0.1,0.6-0.3,0.7-0.2C263.7,113.3,263.7,113.4,263.7,113.4L263.7,113.4z M276.9,113.4L276.9,113.4L276.9,113.4
	c0.2,0,0.5-0.1,0.6-0.3c0-0.1,0.1-0.1,0.1-0.2c0-0.1,0-0.2,0-0.3l0,0v0c0.1-4.5-1.3-8.3-3.6-10.8c-0.5-0.5-1-0.9-1.5-1.3
	c-0.5-0.4-1.1-0.8-1.7-1l0,0l0,0l0,0c-2-1-4.2-1.4-6.4-1.2c-0.4,0-0.9,0.1-1.3,0.2c-0.4,0.1-0.8,0.2-1.2,0.3h0
	c-2.2,0.7-4.4,2-6.1,3.7c-0.3,0.3-0.7,0.7-1,1.1c-0.1,0.2-0.3,0.4-0.4,0.6c1.2-1,2.5-1.9,3.8-2.7c0.3-0.2,0.6-0.3,0.9-0.5
	c0.3-0.1,0.6-0.3,0.9-0.4l0,0l0,0c1.2-0.5,2.4-0.8,3.5-0.9c1.2-0.1,2.4-0.1,3.5,0.1c0.8,0.1,1.7,0.3,2.4,0.7
	c0.1,0.1,0.3,0.1,0.4,0.2c0.1,0.1,0.3,0.2,0.4,0.2l0,0l0,0l0,0c2.6,1.4,4.5,4.4,5.3,7.7c0.2,0.6,0.3,1.3,0.4,2
	c0.1,0.7,0.1,1.3,0.1,2l0,0v0c0,0.4,0.1,0.7,0.4,0.8c0,0,0.1,0,0.1,0l0,0C276.8,113.4,276.9,113.4,276.9,113.4L276.9,113.4z
	 M152.5,128.9h71.6c3.3,0,3.2,3.3-0.1,3.4h-71.4C149.2,132.3,149.2,128.9,152.5,128.9L152.5,128.9z M150.1,108.9
	c0-0.9,1.2-1.7,2.9-1.7h28.6c1.6,0,2.9,0.7,2.9,1.7c0,0.9-1.3,1.7-2.9,1.7h-28.6C151.3,110.6,150.1,109.9,150.1,108.9z M93.7,186.5
	h214.4v3.4H93.7V186.5z M127.1,125.4c4.8,0,8.6-4,8.6-8.9s-3.9-8.9-8.6-8.9s-8.6,4-8.6,8.9C118.5,121.4,122.3,125.4,127.1,125.4z
	 M112.7,143.2c0,0-2.9,0-2.9-3c0-3,2.9-11.9,17.2-11.9s17.3,8.9,17.3,11.9c0,3-2.9,3-2.9,3H112.7L112.7,143.2z"/>
</svg>
