<?xml version="1.0" encoding="utf-8"?>
<!-- Generator: Adobe Illustrator 27.3.1, SVG Export Plug-In . SVG Version: 6.00 Build 0)  -->
<svg version="1.1" id="Layer_1" xmlns:xodm="http://www.corel.com/coreldraw/odm/2003"
	 xmlns="http://www.w3.org/2000/svg" xmlns:xlink="http://www.w3.org/1999/xlink" x="0px" y="0px" viewBox="0 0 400 225"
	 style="enable-background:new 0 0 400 225;" xml:space="preserve">
<style type="text/css">
	.st0{fill-rule:evenodd;clip-rule:evenodd;fill:#CCCCCC;}
	.st1{fill:#231F20;}
	.st2{font-family:'TiroDevaHindi-Regular';}
	.st3{font-size:50px;}
</style>
<rect class="st0" width="400" height="225"/>
<text transform="matrix(1 0 0 1 115.41 53.99)" class="st1 st2 st3">D.El.Ed</text>
<text transform="matrix(1 0 0 1 151.96 109.71)" class="st1 st2 st3">CAF </text>
<g id="_3156973958688">
</g>
<path class="st1" d="M171.2,197.3c0,1.6,1.3,2.9,3.7,2.9h52.5c2.4,0,3.6-1.3,3.6-2.9c0-1.6-1.2-2.9-3.6-2.9h-52.5
	C172.5,194.4,171.2,195.7,171.2,197.3z M171.2,186.3c0,1.6,1.3,2.9,3.7,2.9h52.5c2.4,0,3.6-1.3,3.6-2.9c0-1.6-1.2-2.9-3.6-2.9h-52.5
	C172.5,183.4,171.2,184.7,171.2,186.3z M171.2,175.3c0,1.6,1.3,2.9,3.7,2.9h52.5c2.4,0,3.6-1.2,3.6-2.9c0-1.6-1.2-2.9-3.6-2.9h-52.5
	C172.5,172.4,171.2,173.7,171.2,175.3z M171.2,164.3c0,1.6,1.3,2.9,3.7,2.9h52.5c2.4,0,3.6-1.3,3.6-2.9c0-1.6-1.2-2.9-3.6-2.9h-52.5
	C172.5,161.4,171.2,162.7,171.2,164.3z M190.9,151.6c0,1.6,1.3,2.9,2.9,2.9h34.4c1.6,0,2.9-1.3,2.9-2.9c0-1.6-1.2-2.9-2.9-2.9h-34.4
	C192.2,148.7,190.9,150,190.9,151.6z M190.9,140.1c0,1.6,1.3,2.9,2.9,2.9h34.4c1.6,0,2.9-1.3,2.9-2.9c0-1.6-1.2-2.9-2.9-2.9h-34.4
	C192.2,137.2,190.9,138.5,190.9,140.1z M169.5,154.7c0,0-1.6,0-1.6-1.6c0-1.6,1.6-6.5,9.7-6.5c8.1,0,9.7,4.9,9.7,6.5
	c0,1.6-1.6,1.6-1.6,1.6H169.5z M177.6,145c2.7,0,4.8-2.2,4.8-4.9c0-2.7-2.2-4.9-4.8-4.9c-2.7,0-4.9,2.2-4.9,4.9
	C172.8,142.8,174.9,145,177.6,145z M231.7,130.2c2.8,0,5.1,2.4,5.1,5.4v65.4c0,3-2.3,5.4-5.1,5.4h-61.6c-2.8,0-5.1-2.4-5.1-5.4
	v-65.4c0-3,2.3-5.4,5.1-5.4H231.7z M170.2,124.8c-5.7,0-10.2,4.9-10.2,10.9v65.4c0,6,4.6,10.9,10.2,10.9h61.6
	c5.6,0,10.2-4.9,10.2-10.9v-65.4c0-6-4.6-10.9-10.2-10.9H170.2z"/>
</svg>
