<?xml version="1.0" encoding="utf-8"?>
<!-- Generator: Adobe Illustrator 27.3.1, SVG Export Plug-In . SVG Version: 6.00 Build 0)  -->
<svg version="1.1" id="Layer_1" xmlns:xodm="http://www.corel.com/coreldraw/odm/2003"
	 xmlns="http://www.w3.org/2000/svg" xmlns:xlink="http://www.w3.org/1999/xlink" x="0px" y="0px" viewBox="0 0 400 225"
	 style="enable-background:new 0 0 400 225;" xml:space="preserve">
<style type="text/css">
	.st0{fill-rule:evenodd;clip-rule:evenodd;fill:#CCCCCC;}
	.st1{fill:#231F20;}
	.st2{font-family:'TiroDevaHindi-Regular';}
	.st3{font-size:50px;}
	.st4{fill:none;stroke:#231F20;stroke-width:0.83;stroke-linecap:round;stroke-linejoin:round;stroke-miterlimit:2.6131;}
	.st5{fill-rule:evenodd;clip-rule:evenodd;fill:#231F20;}
</style>
<rect class="st0" width="400" height="225"/>
<text transform="matrix(1 0 0 1 138.7005 53.47)" class="st1 st2 st3">Inter </text>
<text transform="matrix(1 0 0 1 83.19 109.19)" class="st1 st2 st3">Certificate</text>
<path class="st1" d="M225.7,147.8c2.8,0,5-2.3,5-5.1s-2.2-5.1-5-5.1s-5,2.3-5,5.1S222.9,147.8,225.7,147.8z M217.3,158.1
	c0,0-1.7,0-1.7-1.7c0-1.7,1.7-6.8,10.1-6.8c8.4,0,10,5.1,10,6.8c0,1.7-1.7,1.7-1.7,1.7H217.3L217.3,158.1z"/>
<path class="st4" d="M218.4,134.3H233c2.4,0,4.4,2,4.4,4.4v18.2c0,2.4-2,4.4-4.4,4.4h-14.6c-2.4,0-4.4-2-4.4-4.4v-18.2
	C214,136.3,216,134.3,218.4,134.3z"/>
<path class="st5" d="M184.5,198.4c0-0.1,0-0.2,0-0.3c0.1,0,0.3,0,0.4-0.1c0.1,0,0.2-0.1,0.2-0.1c0.1-0.1,0.1-0.1,0.2-0.3
	c0.1-0.1,0.1-0.3,0.2-0.5l1.7-4.5c0.1,0,0.1,0,0.2,0c0.1,0,0.2,0,0.2,0l1.7,4.6c0.1,0.2,0.1,0.3,0.2,0.4s0.1,0.2,0.2,0.2
	s0.1,0.1,0.2,0.1c0.1,0,0.2,0,0.4,0.1c0,0.1,0,0.2,0,0.3c-0.2,0-0.4,0-0.6,0c-0.2,0-0.4,0-0.6,0s-0.4,0-0.6,0c-0.2,0-0.4,0-0.6,0
	c0-0.1,0-0.2,0-0.3c0.3,0,0.4-0.1,0.6-0.1c0.1,0,0.1-0.1,0.1-0.2c0-0.1,0-0.1,0-0.1c0-0.1,0-0.1-0.1-0.2l-0.5-1.2h-1.8l-0.4,1.1
	c0,0.1-0.1,0.2-0.1,0.3c0,0.1,0,0.1,0,0.2c0,0.1,0.1,0.2,0.2,0.2s0.3,0.1,0.5,0.1c0,0.1,0,0.2,0,0.3c-0.2,0-0.4,0-0.5,0
	s-0.4,0-0.5,0c-0.1,0-0.3,0-0.4,0S184.6,198.4,184.5,198.4L184.5,198.4z M186.4,196h1.6l-0.8-2.1L186.4,196z M190.3,200.4
	c0-0.1,0-0.2,0-0.2c0.2,0,0.3,0,0.4-0.1c0.1,0,0.1-0.1,0.2-0.1c0-0.1,0-0.2,0-0.4v-3.8c0-0.2,0-0.4,0-0.5c0-0.1-0.1-0.2-0.1-0.2
	c-0.1,0-0.2-0.1-0.4-0.1c0-0.1,0-0.1,0-0.2c0.2-0.1,0.4-0.1,0.6-0.2c0.2-0.1,0.4-0.1,0.6-0.2l0.1,0.1c0,0.1,0,0.2,0,0.4
	c0,0.1,0,0.2,0,0.3c0.2-0.2,0.4-0.4,0.6-0.5c0.2-0.1,0.4-0.1,0.6-0.1c0.3,0,0.6,0.1,0.9,0.3c0.2,0.2,0.4,0.4,0.5,0.7
	c0.1,0.3,0.2,0.6,0.2,0.9c0,0.4-0.1,0.8-0.2,1.1s-0.4,0.6-0.7,0.8s-0.6,0.3-1.1,0.3c-0.1,0-0.3,0-0.4,0c-0.1,0-0.3-0.1-0.4-0.1v1.1
	c0,0.2,0,0.4,0,0.4c0,0.1,0.1,0.1,0.2,0.2c0.1,0,0.3,0,0.5,0.1c0,0.1,0,0.2,0,0.3c-0.2,0-0.4,0-0.6,0c-0.2,0-0.4,0-0.6,0
	c-0.2,0-0.4,0-0.5,0C190.6,200.4,190.5,200.4,190.3,200.4L190.3,200.4z M191.7,197.7c0.2,0.3,0.5,0.5,0.9,0.5c0.3,0,0.5-0.1,0.6-0.2
	s0.3-0.3,0.4-0.6s0.1-0.5,0.1-0.8c0-0.3,0-0.5-0.1-0.8c-0.1-0.3-0.2-0.5-0.3-0.6s-0.4-0.2-0.6-0.2c-0.3,0-0.6,0.1-0.9,0.5
	L191.7,197.7L191.7,197.7z M195,200.4c0-0.1,0-0.2,0-0.2c0.2,0,0.3,0,0.4-0.1c0.1,0,0.1-0.1,0.2-0.1c0-0.1,0-0.2,0-0.4v-3.8
	c0-0.2,0-0.4,0-0.5s-0.1-0.2-0.1-0.2c-0.1,0-0.2-0.1-0.4-0.1c0-0.1,0-0.1,0-0.2c0.2-0.1,0.4-0.1,0.6-0.2c0.2-0.1,0.4-0.1,0.6-0.2
	l0.1,0.1c0,0.1,0,0.2,0,0.4c0,0.1,0,0.2,0,0.3c0.2-0.2,0.4-0.4,0.6-0.5s0.4-0.1,0.6-0.1c0.3,0,0.6,0.1,0.9,0.3
	c0.2,0.2,0.4,0.4,0.5,0.7c0.1,0.3,0.2,0.6,0.2,0.9c0,0.4-0.1,0.8-0.3,1.1s-0.4,0.6-0.7,0.8s-0.6,0.3-1,0.3c-0.2,0-0.3,0-0.4,0
	c-0.1,0-0.3-0.1-0.4-0.1v1.1c0,0.2,0,0.4,0.1,0.4c0,0.1,0.1,0.1,0.2,0.2c0.1,0,0.3,0,0.5,0.1c0,0.1,0,0.2,0,0.3c-0.2,0-0.4,0-0.6,0
	c-0.2,0-0.4,0-0.6,0c-0.2,0-0.4,0-0.5,0C195.4,200.4,195.2,200.4,195,200.4L195,200.4z M196.4,197.7c0.2,0.3,0.5,0.5,0.9,0.5
	c0.3,0,0.5-0.1,0.6-0.2c0.1-0.1,0.3-0.3,0.3-0.6c0.1-0.2,0.1-0.5,0.1-0.8c0-0.3,0-0.5-0.1-0.8c-0.1-0.3-0.2-0.5-0.4-0.6
	c-0.1-0.2-0.4-0.2-0.6-0.2c-0.3,0-0.6,0.1-0.9,0.5L196.4,197.7L196.4,197.7z M199.8,198.4c0-0.1,0-0.2,0-0.2c0.2,0,0.3,0,0.4-0.1
	c0.1,0,0.1-0.1,0.2-0.2c0-0.1,0-0.2,0-0.4v-1.8c0-0.2,0-0.4,0-0.5c0-0.1-0.1-0.2-0.2-0.2c-0.1,0-0.2-0.1-0.4-0.1c0-0.1,0-0.1,0-0.2
	c0.2-0.1,0.4-0.1,0.6-0.1c0.2-0.1,0.4-0.1,0.6-0.2l0.1,0.1v0.7c0.4-0.5,0.8-0.7,1.1-0.7c0.2,0,0.3,0.1,0.4,0.1
	c0.1,0.1,0.1,0.2,0.1,0.3c0,0.1-0.1,0.3-0.1,0.3c-0.1,0.1-0.2,0.1-0.3,0.1c-0.1,0-0.2,0-0.3-0.1c-0.1-0.1-0.2-0.1-0.2-0.2
	c-0.2,0-0.3,0.1-0.5,0.2c-0.1,0.1-0.2,0.3-0.2,0.5v1.7c0,0.2,0,0.4,0,0.4c0,0.1,0.1,0.1,0.2,0.2c0.1,0,0.3,0,0.5,0.1
	c0,0.1,0,0.2,0,0.2c-0.2,0-0.4,0-0.6,0c-0.2,0-0.4,0-0.6,0s-0.4,0-0.5,0S200,198.4,199.8,198.4L199.8,198.4z M205,198.5
	c-0.4,0-0.7-0.1-1-0.3c-0.3-0.2-0.5-0.4-0.7-0.7c-0.2-0.3-0.2-0.6-0.2-1c0-0.4,0.1-0.8,0.3-1.1s0.4-0.6,0.7-0.7
	c0.3-0.2,0.6-0.3,1.1-0.3c0.4,0,0.7,0.1,1,0.3c0.3,0.2,0.5,0.4,0.7,0.7c0.2,0.3,0.2,0.6,0.2,1c0,0.4-0.1,0.7-0.3,1.1
	c-0.2,0.3-0.4,0.6-0.7,0.7C205.7,198.4,205.4,198.5,205,198.5L205,198.5z M203.9,196.4c0,0.6,0.1,1,0.3,1.3c0.2,0.3,0.4,0.5,0.8,0.5
	c0.3,0,0.6-0.1,0.8-0.4c0.2-0.3,0.3-0.7,0.3-1.2c0-0.5-0.1-1-0.3-1.3c-0.2-0.3-0.4-0.5-0.8-0.5c-0.3,0-0.6,0.1-0.8,0.4
	C204,195.5,204,195.9,203.9,196.4L203.9,196.4z M209.5,198.4l-0.4,0.1l-1.2-3.1c-0.1-0.1-0.1-0.2-0.1-0.3s-0.1-0.1-0.2-0.1
	s-0.2-0.1-0.3-0.1c0-0.1,0-0.2,0-0.3c0.2,0,0.3,0,0.5,0c0.2,0,0.3,0,0.5,0c0.1,0,0.3,0,0.5,0c0.2,0,0.3,0,0.5,0c0,0.1,0,0.2,0,0.3
	c-0.2,0-0.3,0-0.4,0.1c-0.1,0-0.1,0.1-0.1,0.2c0,0,0,0.1,0,0.2c0,0.1,0,0.1,0.1,0.2c0,0.1,0.1,0.1,0.1,0.3c0.1,0.1,0.1,0.3,0.2,0.4
	c0.1,0.2,0.1,0.4,0.2,0.5c0.1,0.2,0.1,0.3,0.2,0.5c0.1,0.1,0.1,0.3,0.1,0.4c0.1-0.3,0.2-0.6,0.4-0.9c0.2-0.4,0.3-0.7,0.5-1.1
	c0-0.1,0-0.1,0.1-0.2s0-0.1,0-0.1c0-0.1,0-0.1-0.1-0.2s-0.2-0.1-0.4-0.1c0-0.1,0-0.2,0-0.3c0.1,0,0.3,0,0.4,0c0.1,0,0.3,0,0.4,0
	c0.1,0,0.2,0,0.2,0c0.1,0,0.2,0,0.4,0c0,0.1,0,0.2,0,0.3c-0.2,0-0.4,0.1-0.5,0.1c-0.1,0.1-0.2,0.2-0.2,0.4L209.5,198.4L209.5,198.4z
	 M213.2,198.5c-0.4,0-0.7-0.1-1-0.3c-0.3-0.2-0.5-0.4-0.6-0.7c-0.1-0.3-0.2-0.6-0.2-1c0-0.4,0.1-0.7,0.2-1c0.1-0.3,0.3-0.6,0.6-0.8
	c0.3-0.2,0.6-0.3,1-0.3c0.5,0,0.8,0.1,1.1,0.4c0.3,0.3,0.4,0.6,0.4,1.1c0,0.1,0,0.1,0,0.1s0,0.1,0,0.1l-2.5,0c0,0,0,0,0,0.1
	c0,0.5,0.1,0.9,0.4,1.2s0.6,0.4,1,0.4c0.4,0,0.7-0.1,1.1-0.4c0.1,0.1,0.1,0.1,0.1,0.2C214.3,198.3,213.8,198.5,213.2,198.5
	L213.2,198.5z M212.2,195.9l1.7,0c0,0,0,0,0,0c0,0,0,0,0,0c0-0.3-0.1-0.5-0.2-0.7c-0.1-0.2-0.3-0.3-0.6-0.3c-0.2,0-0.4,0.1-0.6,0.3
	C212.4,195.2,212.3,195.5,212.2,195.9L212.2,195.9z M218.4,198.5l-0.1-0.1l0-0.6c-0.2,0.2-0.4,0.4-0.6,0.5c-0.2,0.1-0.4,0.1-0.6,0.1
	c-0.3,0-0.6-0.1-0.9-0.3c-0.2-0.2-0.4-0.4-0.6-0.7c-0.1-0.3-0.2-0.6-0.2-0.9c0-0.4,0.1-0.7,0.3-1.1c0.2-0.3,0.4-0.6,0.7-0.8
	c0.3-0.2,0.7-0.3,1.1-0.3c0.1,0,0.2,0,0.4,0c0.1,0,0.3,0.1,0.4,0.1v-1c0-0.2,0-0.3-0.1-0.4c0-0.1-0.1-0.1-0.2-0.2
	c-0.1,0-0.2-0.1-0.4-0.1c0-0.1,0-0.1,0-0.2c0.2,0,0.4-0.1,0.7-0.1c0.2-0.1,0.4-0.1,0.7-0.2l0.1,0.1c0,0.1,0,0.2,0,0.4s0,0.3,0,0.5v4
	c0,0.2,0,0.4,0,0.5c0,0.1,0.1,0.2,0.1,0.2c0.1,0,0.2,0.1,0.4,0.1c0,0.1,0,0.1,0,0.2c-0.2,0-0.4,0.1-0.6,0.1
	C218.8,198.4,218.6,198.5,218.4,198.5L218.4,198.5z M218.3,195.3c-0.2-0.3-0.5-0.5-0.9-0.5s-0.6,0.1-0.8,0.4
	c-0.2,0.3-0.3,0.6-0.3,1.1c0,0.3,0,0.6,0.1,0.8c0.1,0.2,0.2,0.5,0.4,0.6c0.2,0.2,0.4,0.2,0.7,0.2c0.4,0,0.6-0.1,0.9-0.5L218.3,195.3
	L218.3,195.3z M234.8,125.3c3.1,0,5.6,2.8,5.6,6.2v73.8c0,3.4-2.5,6.2-5.6,6.2h-67.7c-3.1,0-5.6-2.8-5.6-6.2v-73.8
	c0-3.4,2.5-6.2,5.6-6.2H234.8z M167.1,119.2c-6.2,0-11.3,5.5-11.3,12.3v73.8c0,6.8,5.1,12.3,11.3,12.3h67.7
	c6.2,0,11.3-5.5,11.3-12.3v-73.8c0-6.8-5.1-12.3-11.3-12.3H167.1z M220.5,174.4c0.8,0,1.4,0.6,1.4,1.4v25.5c0,0.8-0.6,1.4-1.4,1.4
	h-36.9c-0.8,0-1.4-0.6-1.4-1.4v-25.5c0-0.8,0.6-1.4,1.4-1.4H220.5z M183.6,171.6c-2.4,0-4.3,1.9-4.3,4.2v25.5c0,2.4,1.9,4.2,4.3,4.2
	h36.9c2.4,0,4.2-1.9,4.2-4.2v-25.5c0-2.3-1.9-4.2-4.2-4.2H183.6z M171,152.9h28.5c1.3,0,1.3,3.3,0,3.3H171
	C169.7,156.2,169.7,152.9,171,152.9L171,152.9L171,152.9z M170.7,146.6h35.6c1.6,0,1.6,3.3,0,3.3h-35.4
	C169.1,150,169.1,146.6,170.7,146.6z M171.2,159.8h35.6c1.6,0,1.6,3.3,0,3.3h-35.4C169.6,163.1,169.6,159.8,171.2,159.8z M171,140
	h28.5c1.3,0,1.3,3.3,0,3.3H171C169.7,143.4,169.7,140,171,140L171,140L171,140z M170.6,133.6h35.6c1.6,0,1.6,3.3-0.1,3.3h-35.4
	C169,137,169,133.6,170.6,133.6z M202.1,191.3c3.8,0,6.9-3.1,6.9-6.9s-3.1-6.9-6.9-6.9c-3.8,0-6.9,3.1-6.9,6.9
	S198.3,191.3,202.1,191.3z M205.7,182.8c0.3-0.3,0.3-0.7,0-1c-0.3-0.3-0.7-0.3-1,0l-3.7,3.7l-1.6-1.6c-0.3-0.3-0.7-0.3-1,0
	c-0.3,0.3-0.3,0.7,0,1l2.1,2.1c0.1,0.1,0.3,0.2,0.5,0.2s0.4-0.1,0.5-0.2L205.7,182.8L205.7,182.8z"/>
</svg>
