<?xml version="1.0" encoding="utf-8"?>
<!-- Generator: Adobe Illustrator 27.3.1, SVG Export Plug-In . SVG Version: 6.00 Build 0)  -->
<svg version="1.1" id="Layer_1" xmlns:xodm="http://www.corel.com/coreldraw/odm/2003"
	 xmlns="http://www.w3.org/2000/svg" xmlns:xlink="http://www.w3.org/1999/xlink" x="0px" y="0px" viewBox="0 0 400 225"
	 style="enable-background:new 0 0 400 225;" xml:space="preserve">
<style type="text/css">
	.st0{fill-rule:evenodd;clip-rule:evenodd;fill:#CCCCCC;}
	.st1{fill:#231F20;}
	.st2{font-family:'TiroDevaHindi-Regular';}
	.st3{font-size:50px;}
	.st4{fill:none;stroke:#231F20;stroke-width:0.83;stroke-linecap:round;stroke-linejoin:round;stroke-miterlimit:2.6131;}
</style>
<rect class="st0" width="400" height="225"/>
<text transform="matrix(1 0 0 1 125.61 53.47)" class="st1 st2 st3">Matric </text>
<text transform="matrix(1 0 0 1 80.74 109.19)" class="st1 st2 st3">Marksheet</text>
<path class="st1" d="M221.6,147.1c2.5,0,4.5-2,4.5-4.6c0-2.5-2-4.6-4.5-4.6s-4.5,2-4.5,4.6C217.1,145,219.1,147.1,221.6,147.1z
	 M214.1,156.2c0,0-1.5,0-1.5-1.5c0-1.5,1.5-6.1,9-6.1c7.5,0,9,4.6,9,6.1c0,1.5-1.5,1.5-1.5,1.5H214.1L214.1,156.2z"/>
<path class="st4" d="M215.1,135.1h13c2.2,0,3.9,1.8,3.9,3.9v16.2c0,2.2-1.8,3.9-3.9,3.9h-13c-2.2,0-3.9-1.8-3.9-3.9V139
	C211.2,136.8,212.9,135.1,215.1,135.1z"/>
<path class="st1" d="M232.3,128.5c2.9,0,5.2,2.6,5.2,5.7v68.4c0,3.1-2.4,5.7-5.2,5.7h-62.8c-2.9,0-5.2-2.6-5.2-5.7v-68.4
	c0-3.1,2.4-5.7,5.2-5.7H232.3z M169.5,122.8c-5.8,0-10.5,5.1-10.5,11.4v68.4c0,6.3,4.7,11.4,10.5,11.4h62.8
	c5.8,0,10.5-5.1,10.5-11.4v-68.4c0-6.3-4.7-11.4-10.5-11.4H169.5z M172.2,198.2c0-1,0.8-1.8,1.8-1.8h35.1c1,0,1.8,0.8,1.8,1.8
	c0,1-0.8,1.8-1.8,1.8H174C173,199.9,172.2,199.2,172.2,198.2z M172.2,191.2c0-1,0.8-1.8,1.8-1.8h17.5c1,0,1.8,0.8,1.8,1.8
	s-0.8,1.8-1.8,1.8H174C173,192.9,172.2,192.1,172.2,191.2z M172.2,184.2c0-1,0.8-1.8,1.8-1.8h31.6c1,0,1.8,0.8,1.8,1.8
	s-0.8,1.8-1.8,1.8H174C173,185.9,172.2,185.1,172.2,184.2z M172.2,177.2c0-1,0.8-1.8,1.8-1.8h24.5c1,0,1.8,0.8,1.8,1.8
	s-0.8,1.8-1.8,1.8H174C173,178.9,172.2,178.1,172.2,177.2z M172.2,170.1c0-1,0.8-1.8,1.8-1.8h24.5c1,0,1.8,0.8,1.8,1.8
	s-0.8,1.8-1.8,1.8H174C173,171.9,172.2,171.1,172.2,170.1z M217.8,198.2c0-1,0.8-1.8,1.8-1.8h7c1,0,1.8,0.8,1.8,1.8
	c0,1-0.8,1.8-1.8,1.8h-7C218.6,199.9,217.8,199.2,217.8,198.2z M217.8,191.2c0-1,0.8-1.8,1.8-1.8h7c1,0,1.8,0.8,1.8,1.8
	s-0.8,1.8-1.8,1.8h-7C218.6,192.9,217.8,192.1,217.8,191.2z M217.8,184.2c0-1,0.8-1.8,1.8-1.8h7c1,0,1.8,0.8,1.8,1.8
	s-0.8,1.8-1.8,1.8h-7C218.6,185.9,217.8,185.1,217.8,184.2z M217.8,177.2c0-1,0.8-1.8,1.8-1.8h7c1,0,1.8,0.8,1.8,1.8
	s-0.8,1.8-1.8,1.8h-7C218.6,178.9,217.8,178.1,217.8,177.2z M217.8,170.1c0-1,0.8-1.8,1.8-1.8h7c1,0,1.8,0.8,1.8,1.8
	s-0.8,1.8-1.8,1.8h-7C218.6,171.9,217.8,171.1,217.8,170.1z M173.2,154.5h26.4c1.2,0,1.2,3.1,0,3.1h-26.3
	C172,157.6,172,154.5,173.2,154.5L173.2,154.5z M172.9,148.2h33c1.5,0,1.5,3.1,0,3.1H173C171.4,151.3,171.4,148.2,172.9,148.2z
	 M174.2,161.3H232c2.7,0,2.6,3.1-0.1,3.1h-57.6C171.6,164.4,171.6,161.3,174.2,161.3L174.2,161.3z M173.2,142.1h26.4
	c1.2,0,1.2,3.1,0,3.1h-26.3C172,145.2,172,142.1,173.2,142.1L173.2,142.1z M172.9,136.2h33c1.5,0,1.5,3.1,0,3.1h-32.9
	C171.4,139.3,171.4,136.2,172.9,136.2z"/>
</svg>
