<?xml version="1.0" encoding="utf-8"?>
<!-- Generator: Adobe Illustrator 27.3.1, SVG Export Plug-In . SVG Version: 6.00 Build 0)  -->
<svg version="1.1" id="Layer_1" xmlns:xodm="http://www.corel.com/coreldraw/odm/2003"
	 xmlns="http://www.w3.org/2000/svg" xmlns:xlink="http://www.w3.org/1999/xlink" x="0px" y="0px" viewBox="0 0 400 225"
	 style="enable-background:new 0 0 400 225;" xml:space="preserve">
<style type="text/css">
	.st0{fill-rule:evenodd;clip-rule:evenodd;fill:#CCCCCC;}
	.st1{fill:#231F20;}
	.st2{font-family:'TiroDevaHindi-Regular';}
	.st3{font-size:50px;}
</style>
<rect class="st0" width="400" height="225"/>
<text transform="matrix(1 0 0 1 59.62 53.54)" class="st1 st2 st3">Intermediate</text>
<text transform="matrix(1 0 0 1 67.62 109.26)" class="st1 st2 st3">Registration</text>
<g id="_3192950055952">
</g>
<g id="_3192950055184">
</g>
<path class="st1" d="M249,131.4c2.1,0,3.7,1.6,3.7,3.7v66.6c0,2.1-1.6,3.7-3.7,3.7h-96.2c-2,0-3.7-1.6-3.7-3.7v-66.6
	c0-2.1,1.7-3.7,3.7-3.7H249z M152.8,124c-6.1,0-11.1,5-11.1,11.1v66.6c0,6.1,5,11.1,11.1,11.1H249c6.1,0,11.1-5,11.1-11.1v-66.6
	c0-6.1-5-11.1-11.1-11.1H152.8z M212.7,148.2c0,2.1-1.6,3.7-3.6,3.7h-43.7c-2,0-3.6-1.6-3.6-3.7c0-2.1,1.6-3.7,3.6-3.7h43.7
	C211.1,144.5,212.7,146.2,212.7,148.2L212.7,148.2z M212.7,160.2c0,2.1-1.6,3.7-3.6,3.7h-43.7c-2,0-3.6-1.6-3.6-3.7
	c0-2.1,1.6-3.7,3.6-3.7h43.7C211.1,156.5,212.7,158.1,212.7,160.2L212.7,160.2z M212.7,172.6c0,2.1-1.6,3.7-3.6,3.7h-43.7
	c-2,0-3.6-1.6-3.6-3.7c0-2.1,1.6-3.7,3.6-3.7h43.7C211.1,168.9,212.7,170.6,212.7,172.6L212.7,172.6z M244.7,184.8
	c0,2.1-1.8,3.7-4.1,3.7h-74.6c-2.3,0-4.1-1.6-4.1-3.7c0-2.1,1.8-3.7,4.1-3.7h74.6C242.8,181.1,244.7,182.8,244.7,184.8z
	 M244.7,197.1c0,2.1-1.8,3.7-4.1,3.7h-74.6c-2.3,0-4.1-1.6-4.1-3.7c0-2.1,1.8-3.7,4.1-3.7h74.6C242.8,193.4,244.7,195.1,244.7,197.1
	z M229.6,161.7c4,0,7.2-3.2,7.2-7.2c0-4-3.2-7.2-7.2-7.2c-4,0-7.2,3.2-7.2,7.2C222.3,158.5,225.6,161.7,229.6,161.7z M217.5,176.2
	c0,0-2.4,0-2.4-2.4c0-2.4,2.4-9.7,14.5-9.7c12.1,0,14.5,7.2,14.5,9.7c0,2.4-2.4,2.4-2.4,2.4H217.5L217.5,176.2z M229.6,161.7
	c4,0,7.2-3.2,7.2-7.2c0-4-3.2-7.2-7.2-7.2c-4,0-7.2,3.2-7.2,7.2C222.3,158.5,225.6,161.7,229.6,161.7z M217.5,176.2
	c0,0-2.4,0-2.4-2.4c0-2.4,2.4-9.7,14.5-9.7c12.1,0,14.5,7.2,14.5,9.7c0,2.4-2.4,2.4-2.4,2.4H217.5L217.5,176.2z M229.6,161.7
	c4,0,7.2-3.2,7.2-7.2c0-4-3.2-7.2-7.2-7.2c-4,0-7.2,3.2-7.2,7.2C222.3,158.5,225.6,161.7,229.6,161.7z M217.5,176.2
	c0,0-2.4,0-2.4-2.4c0-2.4,2.4-9.7,14.5-9.7c12.1,0,14.5,7.2,14.5,9.7c0,2.4-2.4,2.4-2.4,2.4H217.5L217.5,176.2z M229.6,161.7
	c4,0,7.2-3.2,7.2-7.2c0-4-3.2-7.2-7.2-7.2c-4,0-7.2,3.2-7.2,7.2C222.3,158.5,225.6,161.7,229.6,161.7z M217.5,176.2
	c0,0-2.4,0-2.4-2.4c0-2.4,2.4-9.7,14.5-9.7c12.1,0,14.5,7.2,14.5,9.7c0,2.4-2.4,2.4-2.4,2.4H217.5L217.5,176.2z"/>
<g id="_3192950050960">
</g>
</svg>
