<?xml version="1.0" encoding="utf-8"?>
<!-- Generator: Adobe Illustrator 27.3.1, SVG Export Plug-In . SVG Version: 6.00 Build 0)  -->
<svg version="1.1" id="Layer_1" xmlns:xodm="http://www.corel.com/coreldraw/odm/2003"
	 xmlns="http://www.w3.org/2000/svg" xmlns:xlink="http://www.w3.org/1999/xlink" x="0px" y="0px" viewBox="0 0 400 225"
	 style="enable-background:new 0 0 400 225;" xml:space="preserve">
<style type="text/css">
	.st0{fill-rule:evenodd;clip-rule:evenodd;fill:#CCCCCC;}
	.st1{fill:#231F20;}
	.st2{font-family:'TiroDevaHindi-Regular';}
	.st3{font-size:50px;}
	.st4{fill:none;stroke:#231F20;stroke-width:0.83;stroke-linecap:round;stroke-linejoin:round;stroke-miterlimit:2.6131;}
	.st5{fill-rule:evenodd;clip-rule:evenodd;fill:#231F20;}
</style>
<rect class="st0" width="400" height="225"/>
<text transform="matrix(1 0 0 1 55.04 53.54)" class="st1 st2 st3">Matric Admit</text>
<text transform="matrix(1 0 0 1 151.14 109.26)" class="st1 st2 st3">Card</text>
<path class="st1" d="M223.2,145.2c2.2,0,4.1-1.9,4.1-4.1c0-2.3-1.8-4.1-4.1-4.1s-4.1,1.8-4.1,4.1
	C219.1,143.4,220.9,145.2,223.2,145.2z M216.4,153.5c0,0-1.4,0-1.4-1.4c0-1.4,1.4-5.5,8.1-5.5c6.8,0,8.1,4.1,8.1,5.5
	c0,1.4-1.4,1.4-1.4,1.4H216.4L216.4,153.5z"/>
<path class="st4" d="M217.3,134.3h11.8c2,0,3.5,1.6,3.5,3.6v14.7c0,1.9-1.6,3.5-3.5,3.5h-11.8c-1.9,0-3.6-1.6-3.6-3.5v-14.7
	C213.8,135.9,215.4,134.3,217.3,134.3L217.3,134.3z"/>
<path class="st5" d="M171.3,134.4h34.8c1.6,0,1.6,3.2-0.1,3.3h-34.7C169.8,137.7,169.8,134.4,171.3,134.4L171.3,134.4z M171.4,140.8
	h34.8c1.6,0,1.6,3.2,0,3.2h-34.7C169.8,144,169.8,140.8,171.4,140.8L171.4,140.8z M171.4,147.1h34.8c1.6,0,1.6,3.2,0,3.2h-34.7
	C169.8,150.4,169.8,147.1,171.4,147.1L171.4,147.1z M171.4,153.5h34.8c1.6,0,1.6,3.2-0.1,3.2h-34.6
	C169.8,156.7,169.8,153.5,171.4,153.5L171.4,153.5z M172.7,160.3h58.7c2.7,0,2.7,3.2-0.1,3.2h-58.5C170,163.6,170,160.3,172.7,160.3
	L172.7,160.3z M172.1,166.9h41.7c1.9,0,1.9,3.2-0.1,3.3h-41.6C170.2,170.2,170.2,166.9,172.1,166.9z M172.7,173.5h58.7
	c2.7,0,2.6,3.2-0.1,3.2h-58.5C170,176.8,170,173.5,172.7,173.5L172.7,173.5z M171.8,180.3h34.8c1.6,0,1.6,3.2-0.1,3.2h-34.7
	C170.3,183.6,170.3,180.3,171.8,180.3L171.8,180.3z M172.7,186.8h58.7c2.7,0,2.7,3.2-0.1,3.2h-58.5C170,190,170,186.8,172.7,186.8
	L172.7,186.8L172.7,186.8z M172.1,193.7h41.7c1.9,0,1.9,3.2-0.1,3.2h-41.6C170.2,197,170.2,193.7,172.1,193.7z M172.7,200h58.7
	c2.7,0,2.7,3.2-0.1,3.2h-58.5C170,203.3,170,200,172.7,200z M234,126.3c3.1,0,5.5,2.7,5.5,6v72.2c0,3.3-2.5,6-5.5,6h-66.2
	c-3.1,0-5.5-2.7-5.5-6v-72.1c0-3.3,2.5-6,5.5-6L234,126.3L234,126.3z M167.8,120.3c-6.1,0-11,5.4-11,12v72.2c0,6.6,4.9,12,11,12H234
	c6.1,0,11.1-5.4,11.1-12v-72.1c0-6.6-4.9-12-11.1-12C234,120.3,167.8,120.3,167.8,120.3z"/>
</svg>
