<?xml version="1.0" encoding="utf-8"?>
<!-- Generator: Adobe Illustrator 27.3.1, SVG Export Plug-In . SVG Version: 6.00 Build 0)  -->
<svg version="1.1" id="Layer_1" xmlns:xodm="http://www.corel.com/coreldraw/odm/2003"
	 xmlns="http://www.w3.org/2000/svg" xmlns:xlink="http://www.w3.org/1999/xlink" x="0px" y="0px" viewBox="0 0 400 225"
	 style="enable-background:new 0 0 400 225;" xml:space="preserve">
<style type="text/css">
	.st0{fill-rule:evenodd;clip-rule:evenodd;fill:#CCCCCC;}
	.st1{fill:#231F20;}
	.st2{font-family:'TiroDevaHindi-Regular';}
	.st3{font-size:50px;}
</style>
<rect class="st0" width="400" height="225"/>
<text transform="matrix(1 0 0 1 113.38 59.32)" class="st1 st2 st3">D.El.Ed </text>
<text transform="matrix(1 0 0 1 5.16 115.04)" class="st1 st2 st3">Intimation Letter</text>
<path class="st1" d="M212.8,164.8c0,0-0.9,0-0.9-0.9c0-0.9,0.9-3.5,5.2-3.5c4.4,0,5.2,2.6,5.2,3.5c0,0.9-0.9,0.9-0.9,0.9H212.8
	L212.8,164.8z M217.2,159.6c1.5,0,2.6-1.2,2.6-2.6c0-1.4-1.2-2.6-2.6-2.6c-1.4,0-2.6,1.2-2.6,2.6
	C214.6,158.4,215.8,159.6,217.2,159.6z M225.4,151.4c1.1,0,1.9,0.8,1.9,1.9v33.9c0,1.1-0.8,1.9-1.9,1.9h-49c-1,0-1.9-0.8-1.9-1.9
	v-33.9c0-1.1,0.8-1.9,1.9-1.9H225.4z M176.4,147.6c-3.1,0-5.7,2.5-5.7,5.7v33.9c0,3.1,2.5,5.7,5.7,5.7h49c3.1,0,5.6-2.5,5.6-5.7
	v-33.9c0-3.1-2.5-5.7-5.6-5.7H176.4z M182.1,179.7c0,1.1,0.9,1.9,1.9,1.9h33.9c1.1,0,1.9-0.8,1.9-1.9c0-1.1-0.8-1.9-1.9-1.9H184
	C182.9,177.8,182.1,178.6,182.1,179.7z M182.1,170.3c0,1.1,0.9,1.9,1.9,1.9h33.9c1.1,0,1.9-0.8,1.9-1.9c0-1.1-0.8-1.9-1.9-1.9H184
	C182.9,168.4,182.1,169.2,182.1,170.3z M182.1,160.8c0,1.1,0.9,1.9,1.9,1.9h22.6c1.1,0,1.9-0.8,1.9-1.9c0-1.1-0.8-1.9-1.9-1.9H184
	C182.9,159,182.1,159.8,182.1,160.8z"/>
</svg>
