<?xml version="1.0" encoding="utf-8"?>
<!-- Generator: Adobe Illustrator 27.3.1, SVG Export Plug-In . SVG Version: 6.00 Build 0)  -->
<svg version="1.1" id="Layer_1" xmlns:xodm="http://www.corel.com/coreldraw/odm/2003"
	 xmlns="http://www.w3.org/2000/svg" xmlns:xlink="http://www.w3.org/1999/xlink" x="0px" y="0px" viewBox="0 0 400 225"
	 style="enable-background:new 0 0 400 225;" xml:space="preserve">
<style type="text/css">
	.st0{fill-rule:evenodd;clip-rule:evenodd;fill:#CCCCCC;}
	.st1{fill:#231F20;}
	.st2{font-family:'TiroDevaHindi-Regular';}
	.st3{font-size:50px;}
</style>
<rect class="st0" width="400" height="225"/>
<text transform="matrix(1 0 0 1 115.41 53.99)" class="st1 st2 st3">D.El.Ed</text>
<text transform="matrix(1 0 0 1 71.47 109.71)" class="st1 st2 st3">Admit Card</text>
<g id="_3156936945216">
</g>
<path class="st1" d="M170.5,207.1c-2.8,0-5.1-2.5-5.1-5.5v-66.3c0-3.1,2.3-5.5,5.1-5.5h60.8c2.8,0,5.1,2.5,5.1,5.5v66.3
	c0,3.1-2.3,5.5-5.1,5.5H170.5z M231.3,212.6c5.6,0,10.1-4.9,10.1-11.1v-66.3c0-6.1-4.6-11.1-10.1-11.1h-60.8
	c-5.6,0-10.1,4.9-10.1,11.1v66.3c0,6.1,4.5,11.1,10.1,11.1H231.3L231.3,212.6z"/>
<path class="st1" d="M171.6,193.1c0,1.6,1.3,3,3,3h35.7c1.7,0,3-1.3,3-3c0-1.7-1.3-3-3-3h-35.7C173,190.1,171.6,191.4,171.6,193.1z
	 M171.6,181.2c0,1.7,1.3,3,3,3h35.7c1.7,0,3-1.3,3-3c0-1.7-1.3-3-3-3h-35.7C173,178.2,171.6,179.5,171.6,181.2z M171.6,169.3
	c0,1.7,1.3,3,3,3h35.7c1.7,0,3-1.3,3-3c0-1.6-1.3-3-3-3h-35.7C173,166.4,171.6,167.7,171.6,169.3z M171.6,157.4c0,1.7,1.3,3,3,3
	h35.7c1.7,0,3-1.3,3-3c0-1.7-1.3-3-3-3h-35.7C173,154.5,171.6,155.8,171.6,157.4z M171.6,145.6c0,1.6,1.3,3,3,3h35.7
	c1.7,0,3-1.3,3-3c0-1.7-1.3-3-3-3h-35.7C173,142.6,171.6,143.9,171.6,145.6z M222.2,196.1c-1.7,0-3-1.3-3-3c0-1.7,1.3-3,3-3h5.9
	c1.7,0,3,1.3,3,3c0,1.6-1.3,3-3,3H222.2z M222.2,184.2c-1.7,0-3-1.3-3-3c0-1.7,1.3-3,3-3h5.9c1.7,0,3,1.3,3,3c0,1.7-1.3,3-3,3H222.2
	z M222.2,172.3c-1.7,0-3-1.3-3-3c0-1.6,1.3-3,3-3h5.9c1.7,0,3,1.3,3,3c0,1.7-1.3,3-3,3H222.2z M216,160.8c0,0-1.7,0-1.7-1.7
	c0-1.7,1.7-6.7,10-6.7s10,5,10,6.7c0,1.7-1.7,1.7-1.7,1.7H216L216,160.8z M224.3,150.8c2.8,0,5-2.2,5-5c0-2.8-2.2-5-5-5s-5,2.2-5,5
	C219.3,148.5,221.6,150.8,224.3,150.8z"/>
</svg>
