<?xml version="1.0" encoding="utf-8"?>
<!-- Generator: Adobe Illustrator 27.3.1, SVG Export Plug-In . SVG Version: 6.00 Build 0)  -->
<svg version="1.1" id="Layer_1" xmlns:xodm="http://www.corel.com/coreldraw/odm/2003"
	 xmlns="http://www.w3.org/2000/svg" xmlns:xlink="http://www.w3.org/1999/xlink" x="0px" y="0px" viewBox="0 0 400 225"
	 style="enable-background:new 0 0 400 225;" xml:space="preserve">
<style type="text/css">
	.st0{fill-rule:evenodd;clip-rule:evenodd;fill:#CCCCCC;}
	.st1{fill:#231F20;}
	.st2{font-family:'TiroDevaHindi-Regular';}
	.st3{font-size:50px;}
</style>
<rect class="st0" width="400" height="225"/>
<text transform="matrix(1 0 0 1 30.74 53.47)" class="st1 st2 st3">School Leaving</text>
<text transform="matrix(1 0 0 1 83.19 109.19)" class="st1 st2 st3">Certificate</text>
<path class="st1" d="M170.2,207.4c-2.8,0-5.1-2.5-5.1-5.6v-66.9c0-3.1,2.3-5.6,5.1-5.6h61.4c2.8,0,5.1,2.5,5.1,5.6v66.9
	c0,3.1-2.3,5.6-5.1,5.6H170.2z M231.6,213c5.7,0,10.2-5,10.2-11.1v-66.9c0-6.2-4.6-11.2-10.2-11.2h-61.4c-5.7,0-10.2,5-10.2,11.2
	v66.9c0,6.2,4.6,11.1,10.2,11.1L231.6,213L231.6,213z M173.1,167h38.7c1.8,0,1.8,3,0,3h-38.6C171.3,170,171.3,167,173.1,167z
	 M172.8,154.6h32.2c1.5,0,1.5,3,0,3h-32.1C171.4,157.6,171.4,154.6,172.8,154.6z M173.1,142.2h38.7c1.8,0,1.8,3,0,3h-38.6
	C171.3,145.2,171.3,142.2,173.1,142.2z M173.8,181h54.4c2.5,0,2.5,3-0.1,3h-54.3C171.3,184.1,171.3,181,173.8,181L173.8,181z
	 M173.8,187.1h54.4c2.5,0,2.5,3-0.1,3h-54.3C171.3,190.2,171.3,187.1,173.8,187.1L173.8,187.1z M173.8,193.2h54.4c2.5,0,2.4,3-0.1,3
	h-54.3C171.3,196.3,171.3,193.2,173.8,193.2z M173.8,199.3h54.4c2.5,0,2.5,3-0.1,3h-54.3C171.3,202.4,171.3,199.3,173.8,199.3
	L173.8,199.3z M173.6,160.6H228c2.5,0,2.5,3-0.1,3h-54.3C171.1,163.6,171.1,160.6,173.6,160.6L173.6,160.6L173.6,160.6z
	 M173.6,148.3H228c2.5,0,2.5,3-0.1,3h-54.3C171.1,151.3,171.1,148.3,173.6,148.3L173.6,148.3z M173.6,136H228c2.5,0,2.5,3-0.1,3
	h-54.3C171.1,139.1,171.1,136,173.6,136L173.6,136z"/>
</svg>
