<?xml version="1.0" encoding="utf-8"?>
<!-- Generator: Adobe Illustrator 27.3.1, SVG Export Plug-In . SVG Version: 6.00 Build 0)  -->
<svg version="1.1" id="Layer_1" xmlns:xodm="http://www.corel.com/coreldraw/odm/2003"
	 xmlns="http://www.w3.org/2000/svg" xmlns:xlink="http://www.w3.org/1999/xlink" x="0px" y="0px" viewBox="0 0 400 225"
	 style="enable-background:new 0 0 400 225;" xml:space="preserve">
<style type="text/css">
	.st0{fill-rule:evenodd;clip-rule:evenodd;fill:#CCCCCC;}
	.st1{fill:#231F20;}
	.st2{font-family:'TiroDevaHindi-Regular';}
	.st3{font-size:50px;}
</style>
<rect class="st0" width="400" height="225"/>
<text transform="matrix(1 0 0 1 113.53 57.37)" class="st1 st2 st3">D.El.Ed </text>
<text transform="matrix(1 0 0 1 78.03 113.09)" class="st1 st2 st3">Score Card</text>
<path class="st1" d="M233.1,153c3,0,5.4-2.4,5.4-5.4c0-3-2.4-5.4-5.4-5.4s-5.4,2.4-5.4,5.4C227.7,150.6,230.2,153,233.1,153z
	 M224.1,163.8c0,0-1.8,0-1.8-1.8c0-1.8,1.8-7.2,10.8-7.2s10.8,5.4,10.8,7.2c0,1.8-1.8,1.8-1.8,1.8H224.1L224.1,163.8z M251.5,129.5
	c2.2,0,3.9,1.7,3.9,3.9v70.1c0,2.2-1.7,3.9-3.9,3.9H150.3c-2.1,0-3.9-1.7-3.9-3.9v-70.1c0-2.2,1.7-3.9,3.9-3.9H251.5L251.5,129.5z
	 M150.3,121.7c-6.4,0-11.7,5.2-11.7,11.7v70.1c0,6.5,5.2,11.7,11.7,11.7h101.2c6.5,0,11.7-5.2,11.7-11.7v-70.1
	c0-6.5-5.2-11.7-11.7-11.7H150.3z M165.6,147.1c0,2.2,1.7,3.9,3.9,3.9h46.7c2.1,0,3.9-1.7,3.9-3.9c0-2.2-1.7-3.9-3.9-3.9h-46.7
	C167.4,143.2,165.6,144.9,165.6,147.1z M165.6,159.7c0,2.2,1.7,3.9,3.9,3.9h46.7c2.1,0,3.9-1.7,3.9-3.9c0-2.2-1.7-3.9-3.9-3.9h-46.7
	C167.4,155.8,165.6,157.5,165.6,159.7z M165.6,172.8c0,2.2,1.7,3.9,3.9,3.9h70.1c2.2,0,3.9-1.7,3.9-3.9s-1.7-3.9-3.9-3.9h-70.1
	C167.4,168.9,165.6,170.6,165.6,172.8z M165.6,185.7c0,2.2,1.7,3.9,3.9,3.9h70.1c2.2,0,3.9-1.7,3.9-3.9c0-2.2-1.7-3.9-3.9-3.9h-70.1
	C167.4,181.8,165.6,183.5,165.6,185.7z M165.6,198.6c0,2.2,1.7,3.9,3.9,3.9h70.1c2.2,0,3.9-1.7,3.9-3.9c0-2.2-1.7-3.9-3.9-3.9h-70.1
	C167.4,194.7,165.6,196.4,165.6,198.6z M159.8,172.8c0,1.6-1.3,2.9-2.9,2.9c-1.6,0-2.9-1.3-2.9-2.9c0-1.6,1.3-2.9,2.9-2.9
	S159.8,171.2,159.8,172.8z M159.8,185.5c0,1.6-1.3,2.9-2.9,2.9c-1.6,0-2.9-1.3-2.9-2.9c0-1.6,1.3-2.9,2.9-2.9
	S159.8,183.8,159.8,185.5z M159.6,198.7c0,1.6-1.3,2.9-2.9,2.9c-1.6,0-2.9-1.3-2.9-2.9c0-1.6,1.3-2.9,2.9-2.9
	C158.3,195.7,159.6,197,159.6,198.7z M159.5,159.7c0,1.6-1.3,2.9-2.9,2.9c-1.6,0-2.9-1.3-2.9-2.9s1.3-2.9,2.9-2.9
	C158.3,156.8,159.5,158.1,159.5,159.7z M159.5,147c0,1.6-1.3,2.9-2.9,2.9c-1.6,0-2.9-1.3-2.9-2.9c0-1.6,1.3-2.9,2.9-2.9
	C158.3,144.1,159.5,145.4,159.5,147z M233.9,135.1c-0.1-0.1-0.3-0.1-0.5,0l-8.7,3.8c-0.2,0.1-0.4,0.3-0.4,0.5c0,0.2,0.2,0.4,0.4,0.5
	l8.8,3.2c0.1,0.1,0.3,0.1,0.4,0l6.8-2.5v6.3c-0.6,0-1.2,0.5-1.2,1.1v2.1h3.5v-2.1c0-0.6-0.5-1.1-1.2-1.1v-6.7l0.8-0.3
	c0.2-0.1,0.4-0.3,0.4-0.5c0-0.2-0.1-0.4-0.3-0.5L233.9,135.1L233.9,135.1z M231.9,141.1c-0.1,0-0.3,0-0.4,0s-0.2,0.2-0.2,0.3
	l-0.5,1.6c-0.1,0.2,0.1,0.5,0.3,0.6l4.4,1.6c0.1,0,0.3,0,0.4,0l4.4-1.6c0.2-0.1,0.4-0.3,0.3-0.6l-0.5-1.6c0-0.1-0.1-0.2-0.3-0.3
	c-0.1-0.1-0.3-0.1-0.4,0l-3.8,1.3L231.9,141.1L231.9,141.1L231.9,141.1z"/>
</svg>
