<?xml version="1.0" encoding="utf-8"?>
<!-- Generator: Adobe Illustrator 27.3.1, SVG Export Plug-In . SVG Version: 6.00 Build 0)  -->
<svg version="1.1" id="Layer_1" xmlns:xodm="http://www.corel.com/coreldraw/odm/2003"
	 xmlns="http://www.w3.org/2000/svg" xmlns:xlink="http://www.w3.org/1999/xlink" x="0px" y="0px" viewBox="0 0 400 225"
	 style="enable-background:new 0 0 400 225;" xml:space="preserve">
<style type="text/css">
	.st0{fill-rule:evenodd;clip-rule:evenodd;fill:#D9D9D9;}
	.st1{fill:none;stroke:#000000;stroke-width:6.25;stroke-linecap:round;stroke-linejoin:round;stroke-miterlimit:2.6131;}
	.st2{font-family:'TiroDevaHindi-Regular';}
	.st3{font-size:50.7px;}
	.st4{fill-rule:evenodd;clip-rule:evenodd;}
</style>
<rect y="0.5" class="st0" width="400" height="225"/>
<path class="st1" d="M115.2,68.9h171.5c11.8,0,21.4,9.7,21.4,21.4v100.1c0,11.8-9.6,21.4-21.4,21.4H115.2
	c-11.8,0-21.4-9.6-21.4-21.4V90.4C93.7,78.6,103.4,68.9,115.2,68.9z"/>
<text transform="matrix(1 0 0 1 78.2825 59.91)" class="st2 st3">Voter Card</text>
<polygon points="286.4,85.8 276,91.8 274.5,89.4 285,83.3 "/>
<polygon points="284.3,82.1 273.9,88.2 272.5,85.7 282.9,79.7 "/>
<polygon points="282.2,78.4 271.7,84.5 270.3,82.1 280.8,76 "/>
<path d="M111.4,114.6c0,0.9,0.6,1.6,1.8,1.6h41.6c1.3,0,1.8-0.7,1.8-1.6c0-0.9-0.5-1.6-1.8-1.6h-41.6
	C112,113,111.4,113.7,111.4,114.6z"/>
<path d="M167.1,160.6c0-0.8,0.7-1.4,1.6-1.4h21.9c0.9,0,1.6,0.6,1.6,1.4s-0.7,1.4-1.6,1.4h-21.9C167.8,162,167.1,161.4,167.1,160.6z
	"/>
<path class="st4" d="M98,93.8h205.8c9.5,0,9.3,3.6-0.2,3.7H98.5C88.7,97.5,88.7,93.8,98,93.8z"/>
<path class="st4" d="M167.1,134.9c0-0.8,0.4-1.4,1.7-1.4h23.4c1.3,0,1.7,0.6,1.7,1.4s-0.4,1.4-1.7,1.4h-23.4
	C167.5,136.3,167.1,135.6,167.1,134.9z"/>
<path class="st4" d="M169.1,151.3h58.8c2.7,0,2.7,2.7-0.1,2.8h-58.6C166.4,154,166.4,151.3,169.1,151.3z"/>
<path class="st4" d="M168.7,142.3h47c2.2,0,2.1,2.7-0.1,2.8h-46.9C166.6,145.1,166.6,142.3,168.7,142.3z"/>
<path d="M283.5,77.3c0.8,0,1.5-0.7,1.5-1.5s-0.7-1.5-1.5-1.5S282,75,282,75.8S282.6,77.3,283.5,77.3z"/>
<path d="M285.8,81.1c0.8,0,1.5-0.7,1.5-1.5s-0.7-1.5-1.5-1.5s-1.5,0.7-1.5,1.5S285,81.1,285.8,81.1z"/>
<path d="M287.8,84.8c0.8,0,1.5-0.7,1.5-1.5c0-0.8-0.7-1.5-1.5-1.5s-1.5,0.7-1.5,1.5C286.3,84.1,287,84.8,287.8,84.8z"/>
<path d="M111.6,135.7c-0.8,0-1.4,0.7-1.4,1.6v9.4c0,0.9-0.6,1.6-1.4,1.6c-0.8,0-1.4-0.7-1.4-1.6v-9.4c0-2.6,1.9-4.7,4.3-4.7h8.6
	c0.8,0,1.4,0.7,1.4,1.6c0,0.9-0.6,1.6-1.4,1.6C120.2,135.7,111.6,135.7,111.6,135.7z M138.9,134.1c0-0.9,0.6-1.6,1.4-1.6h8.6
	c2.4,0,4.3,2.1,4.3,4.7v9.4c0,0.9-0.6,1.6-1.4,1.6c-0.8,0-1.4-0.7-1.4-1.6v-9.4c0-0.9-0.6-1.6-1.4-1.6h-8.6
	C139.6,135.7,138.9,135,138.9,134.1z M108.7,166.9c0.8,0,1.4,0.7,1.4,1.6v9.4c0,0.9,0.6,1.6,1.4,1.6h8.6c0.8,0,1.4,0.7,1.4,1.6
	s-0.6,1.6-1.4,1.6h-8.6c-2.4,0-4.3-2.1-4.3-4.7v-9.4C107.3,167.6,107.9,166.9,108.7,166.9z M151.9,166.9c0.8,0,1.4,0.7,1.4,1.6v9.4
	c0,2.6-1.9,4.7-4.3,4.7h-8.6c-0.8,0-1.4-0.7-1.4-1.6s0.6-1.6,1.4-1.6h8.6c0.8,0,1.4-0.7,1.4-1.6v-9.4
	C150.5,167.6,151.1,166.9,151.9,166.9z M115.9,176.3c0,0-2.9,0-2.9-3.1c0-3.1,2.9-12.5,17.3-12.5c14.4,0,17.3,9.4,17.3,12.5
	c0,3.1-2.9,3.1-2.9,3.1H115.9z M139,148.2c0,5.2-3.9,9.4-8.6,9.4s-8.6-4.2-8.6-9.4c0-5.2,3.9-9.4,8.6-9.4S139,143,139,148.2z"/>
<path d="M285.2,111.2c0,2.4-1.8,4.3-4,4.3s-4-1.9-4-4.3c0-2.4,1.8-4.3,4-4.3S285.2,108.9,285.2,111.2z"/>
<path d="M273.1,102.7c-1.5,0-2.7,1.3-2.7,2.9v17.2c0,1.6,1.2,2.8,2.7,2.8h16.1c1.5,0,2.7-1.3,2.7-2.8v-17.2c0-1.6-1.2-2.9-2.7-2.9
	H273.1z M289.2,104.1c0.7,0,1.3,0.6,1.3,1.4v17.2c0,0.8-0.6,1.4-1.3,1.4v-1.4c0-1.4-1.3-5.7-8-5.7s-8,4.3-8,5.7v1.4
	c-0.7,0-1.3-0.6-1.3-1.4v-17.2c0-0.8,0.6-1.4,1.3-1.4H289.2L289.2,104.1z"/>
<path d="M167.2,185.9c0-0.8,0.7-1.4,1.6-1.4h21.9c0.9,0,1.6,0.6,1.6,1.4c0,0.8-0.7,1.4-1.6,1.4h-21.9
	C167.9,187.2,167.2,186.6,167.2,185.9z"/>
<path class="st4" d="M169.2,176h58.8c2.7,0,2.7,2.7-0.1,2.8h-58.6C166.5,178.8,166.5,176,169.2,176z"/>
<path class="st4" d="M168.7,167.8h47c2.2,0,2.1,2.7-0.1,2.8h-46.9C166.6,170.6,166.6,167.8,168.7,167.8z"/>
</svg>
