<?xml version="1.0" encoding="utf-8"?>
<!-- Generator: Adobe Illustrator 27.3.1, SVG Export Plug-In . SVG Version: 6.00 Build 0)  -->
<svg version="1.1" id="Layer_1" xmlns:xodm="http://www.corel.com/coreldraw/odm/2003"
	 xmlns="http://www.w3.org/2000/svg" xmlns:xlink="http://www.w3.org/1999/xlink" x="0px" y="0px" viewBox="0 0 400 225"
	 style="enable-background:new 0 0 400 225;" xml:space="preserve">
<style type="text/css">
	.st0{fill-rule:evenodd;clip-rule:evenodd;fill:#CCCCCC;}
	.st1{fill:#231F20;}
	.st2{font-family:'TiroDevaHindi-Regular';}
	.st3{font-size:50px;}
	.st4{fill:none;stroke:#231F20;stroke-width:2.81;stroke-linecap:round;stroke-linejoin:round;stroke-miterlimit:2.6131;}
	.st5{fill-rule:evenodd;clip-rule:evenodd;fill:#231F20;}
</style>
<rect class="st0" width="400" height="225"/>
<text transform="matrix(1 0 0 1 138.51 51.73)" class="st1 st2 st3">Caste </text>
<text transform="matrix(1 0 0 1 83.18 107.45)" class="st1 st2 st3">Certificate</text>
<g id="_3193061386672">
</g>
<path class="st1" d="M166.2,209.9c-3.2,0-5.8-2.8-5.8-6.3v-75.8c0-3.5,2.6-6.3,5.8-6.3h69.5c3.2,0,5.8,2.8,5.8,6.3v75.8
	c0,3.5-2.6,6.3-5.8,6.3H166.2z M235.7,216.2c6.4,0,11.6-5.6,11.6-12.6v-75.8c0-7-5.2-12.6-11.6-12.6h-69.6
	c-6.4,0-11.6,5.7-11.6,12.6v75.8c0,7,5.2,12.6,11.6,12.6H235.7z"/>
<path class="st1" d="M168,147.2c0-1.1,0.9-1.9,1.9-1.9h27.2c1.1,0,1.9,0.9,1.9,1.9c0,1.1-0.9,1.9-1.9,1.9h-27.2
	C168.9,149.1,168,148.3,168,147.2L168,147.2z"/>
<path class="st1" d="M168,137.5c0-1.1,0.9-1.9,1.9-1.9h27.2c1.1,0,1.9,0.9,1.9,1.9c0,1.1-0.9,1.9-1.9,1.9h-27.2
	C168.9,139.4,168,138.6,168,137.5L168,137.5z"/>
<path class="st1" d="M217.6,153.2c3.2,0,5.7-2.7,5.7-6s-2.6-6-5.7-6c-3.2,0-5.8,2.7-5.8,6S214.4,153.2,217.6,153.2z M208,165.1
	c0,0-1.9,0-1.9-2c0-2,1.9-8,11.5-8c9.6,0,11.5,6,11.5,8c0,2-1.9,2-1.9,2H208z"/>
<path class="st4" d="M206.1,136h23.1c1.1,0,2,0.9,2,2v30.4c0,1.1-0.9,2-2,2h-23.1c-1.1,0-2-0.9-2-2V138
	C204.1,136.9,204.9,136,206.1,136z"/>
<path class="st5" d="M170.1,178.2h61.7c2.8,0,2.8,3.4-0.1,3.4h-61.4C167.3,181.6,167.3,178.2,170.1,178.2z"/>
<path class="st5" d="M170.1,185.1h61.6c2.9,0,2.8,3.4-0.1,3.4h-61.4C167.3,188.5,167.3,185.1,170.1,185.1L170.1,185.1L170.1,185.1z"
	/>
<path class="st5" d="M170.1,192h61.7c2.8,0,2.8,3.4-0.1,3.4h-61.4C167.3,195.5,167.3,192,170.1,192z"/>
<path class="st5" d="M170.1,198.9h61.6c2.8,0,2.8,3.4-0.1,3.4h-61.5C167.3,202.4,167.3,198.9,170.1,198.9z"/>
</svg>
