<?xml version="1.0" encoding="utf-8"?>
<!-- Generator: Adobe Illustrator 27.3.1, SVG Export Plug-In . SVG Version: 6.00 Build 0)  -->
<svg version="1.1" id="Layer_1" xmlns:xodm="http://www.corel.com/coreldraw/odm/2003"
	 xmlns="http://www.w3.org/2000/svg" xmlns:xlink="http://www.w3.org/1999/xlink" x="0px" y="0px" viewBox="0 0 400 225"
	 style="enable-background:new 0 0 400 225;" xml:space="preserve">
<style type="text/css">
	.st0{fill-rule:evenodd;clip-rule:evenodd;fill:#CCCCCC;}
	.st1{fill:#231F20;}
	.st2{font-family:'TiroDevaHindi-Regular';}
	.st3{font-size:50px;}
	.st4{fill:none;stroke:#231F20;stroke-width:0.83;stroke-linecap:round;stroke-linejoin:round;stroke-miterlimit:2.6131;}
</style>
<rect class="st0" width="400" height="225"/>
<text transform="matrix(1 0 0 1 125.61 53.47)" class="st1 st2 st3">Matric </text>
<text transform="matrix(1 0 0 1 62.34 109.19)" class="st1 st2 st3">Registration</text>
<path class="st1" d="M250.2,130.5c2.1,0,3.8,1.7,3.8,3.8v68.2c0,2.1-1.7,3.8-3.8,3.8h-98.6c-2.1,0-3.8-1.7-3.8-3.8v-68.2
	c0-2.1,1.7-3.8,3.8-3.8H250.2L250.2,130.5z M151.6,122.9c-6.3,0-11.4,5.1-11.4,11.4v68.2c0,6.3,5.1,11.4,11.4,11.4h98.6
	c6.3,0,11.4-5.1,11.4-11.4v-68.2c0-6.3-5.1-11.4-11.4-11.4C250.2,122.9,151.6,122.9,151.6,122.9z M160,192.6c0,1.5,0.9,2.6,2.9,2.6
	H229c2.1,0,2.9-1.1,2.9-2.6c0-1.4-0.8-2.6-2.9-2.6h-66.1C160.9,190,160,191.2,160,192.6z M160,183.2c0,1.4,0.9,2.6,2.9,2.6H229
	c2.1,0,2.9-1.1,2.9-2.6c0-1.5-0.8-2.6-2.9-2.6h-66.1C160.9,180.6,160,181.7,160,183.2z M160,143c0,1.4,0.9,2.6,2.9,2.6H229
	c2.1,0,2.9-1.1,2.9-2.6c0-1.5-0.8-2.6-2.9-2.6h-66.1C160.9,140.4,160,141.5,160,143z M160,174.8c0-1.1,0.9-2,2-2h36.8
	c1.1,0,2,0.9,2,2c0,1.1-0.9,2-2,2h-36.8C160.9,176.9,160,176,160,174.8z M160,151.5c0-1.1,0.9-2.1,2-2.1h36.8c1.1,0,2,0.9,2,2.1
	c0,1.1-0.9,2-2,2h-36.8C160.9,153.5,160,152.6,160,151.5z M160,159.1c0-1.1,0.9-2,2-2h28.6c1.1,0,2,0.9,2,2c0,1.1-0.9,2-2,2h-28.6
	C160.9,161.1,160,160.2,160,159.1z M160.1,167.1c0-1.1,0.9-2,2-2h28.6c1.1,0,2,0.9,2,2c0,1.1-0.9,2.1-2,2.1h-28.6
	C160.9,169.1,160.1,168.2,160.1,167.1z"/>
<path class="st1" d="M220.8,163.2c2.4,0,4.4-2,4.4-4.4s-2-4.4-4.4-4.4c-2.4,0-4.4,2-4.4,4.4C216.4,161.3,218.3,163.2,220.8,163.2z
	 M213.4,172.1c0,0-1.5,0-1.5-1.5s1.5-5.9,8.8-5.9c7.3,0,8.8,4.4,8.8,5.9s-1.5,1.5-1.5,1.5H213.4L213.4,172.1L213.4,172.1z"/>
<path class="st4" d="M214.4,151.5h12.6c2.1,0,3.8,1.7,3.8,3.8v15.8c0,2.1-1.7,3.8-3.8,3.8h-12.6c-2.1,0-3.8-1.7-3.8-3.8v-15.8
	C210.6,153.2,212.3,151.5,214.4,151.5z"/>
</svg>
