<?xml version="1.0" encoding="utf-8"?>
<!-- Generator: Adobe Illustrator 27.3.1, SVG Export Plug-In . SVG Version: 6.00 Build 0)  -->
<svg version="1.1" id="Layer_1" xmlns:xodm="http://www.corel.com/coreldraw/odm/2003"
	 xmlns="http://www.w3.org/2000/svg" xmlns:xlink="http://www.w3.org/1999/xlink" x="0px" y="0px" viewBox="0 0 400 225"
	 style="enable-background:new 0 0 400 225;" xml:space="preserve">
<style type="text/css">
	.st0{fill-rule:evenodd;clip-rule:evenodd;fill:#55595C;}
	.st1{fill:#FFFFFF;}
	.st2{font-family:'TiroDevaHindi-Regular';}
	.st3{font-size:50px;}
	.st4{fill:none;stroke:#FFFFFF;stroke-width:2.81;stroke-linecap:round;stroke-linejoin:round;stroke-miterlimit:2.6131;}
	.st5{fill-rule:evenodd;clip-rule:evenodd;fill:#FFFFFF;}
	.st6{fill:none;stroke:#FFFFFF;stroke-width:6.25;stroke-linecap:round;stroke-linejoin:round;stroke-miterlimit:2.6131;}
</style>
<rect class="st0" width="400" height="225"/>
<text transform="matrix(1 0 0 1 53.97 53.47)" class="st1 st2 st3">Photo &amp; Sign</text>
<path class="st1" d="M148.6,143.3c6.7,0,12.1-5.6,12.1-12.6s-5.4-12.6-12.1-12.6c-6.7,0-12.1,5.6-12.1,12.6
	C136.5,137.6,141.9,143.3,148.6,143.3z M128.4,168.5c0,0-4.1,0-4.1-4.2s4.1-16.8,24.2-16.8c20.2,0,24.2,12.6,24.2,16.8s-4,4.2-4,4.2
	H128.4L128.4,168.5z"/>
<path class="st4" d="M124.8,109.2h47.6c2.3,0,4.1,1.8,4.1,4.1v58.4c0,2.3-1.9,4.1-4.1,4.1h-47.6c-2.3,0-4.1-1.9-4.1-4.1v-58.4
	C120.7,111,122.5,109.2,124.8,109.2z"/>
<polygon class="st5" points="197.5,213.6 197.5,73.5 202.5,73.5 202.5,213.6 "/>
<g>
	<g>
		<path class="st1" d="M262.1,160.8c-0.9,3-3.1,5.8-6.2,6.9c-2.7,1-5.9,0.5-8.1-1.4c-6.3-5.4,0.8-14.5,3.9-19.5
			c2.1-3.4,4.2-6.8,6.3-10.2c2-3.2,4.2-6.4,5.9-9.7c1.3-2.5,2.7-6.2,1.5-9c-1.1-2.5-4.4-2-5.8-0.1c-1.9,2.5-1.6,6.1-0.7,9
			c0.9,2.8,2.5,5.4,3.8,8.1c1.2,2.6,2.5,5.4,3.1,8.2c0.6,3.3-0.9,6.3-3.1,8.6c-4.7,4.7-11.7,5.9-17.8,3.6c-2.9-1.1-5.3-3.1-6.6-6
			c-1.2-2.8-1.3-6.1-0.7-9.1c0.7-3.8,3.1-6.9,6.5-8.6c3-1.5,6.7-1.9,9.5,0.2c2.5,1.8,3.4,4.8,3.6,7.8c0.2,3.3-0.2,6.9-1.6,9.9
			c0.6,0.2,1.1,0.3,1.7,0.5c-0.5-5.7-2.8-10.9-7.9-13.9c-6.5-3.9-14.8-3.7-22-2.2c-5.3,1.1-10.7,3.3-14.9,7
			c-4.3,3.8-8.2,10.7-2.8,15.4c4,3.5,10.4,2.4,15.1,1.3c5.1-1.2,10.1-3.1,15.1-4.6c10.2-3.2,20.7-5.6,31.1-8.2
			c8.2-2,16.4-3.9,24.6-6c0.1,0,0.3-0.1,0.4-0.1c1.1-0.3,0.6-2-0.5-1.7c-6.3,1.5-12.5,3.1-18.8,4.6c-9.1,2.2-18.2,4.3-27.2,6.7
			c-5.4,1.4-10.7,3.1-16,4.9c-5,1.7-10.1,3.4-15.4,3.6c-2.3,0.1-4.8-0.1-6.7-1.4c-2.5-1.8-3-4.8-1.9-7.6c2.2-5.1,7.5-8.5,12.6-10.4
			c10-3.9,28-5,32.4,7.6c0.6,1.6,0.9,3.4,1,5.1c0.1,0.8,1.3,1.3,1.7,0.5c1.3-2.9,1.9-6,1.9-9.2c0-2.8-0.4-5.8-1.9-8.2
			c-3.5-5.5-10.6-5.4-15.6-2c-2.8,2-4.8,4.8-5.6,8.1c-0.7,3.1-0.8,6.5,0.2,9.5c1.9,6.2,8.2,9.6,14.4,9.7c6.5,0.1,13.7-3.5,16.3-9.7
			c1.3-3,0.9-5.9-0.2-8.9c-1.1-3-2.5-5.9-3.9-8.8c-1.7-3.3-3.7-7.1-2.4-10.8c0.3-0.9,0.9-1.9,1.8-2.1c1.3-0.3,1.7,0.7,1.8,1.8
			c0.1,2-0.5,3.9-1.3,5.7c-1.8,3.7-4.3,7.2-6.4,10.7c-2.3,3.7-4.6,7.5-6.9,11.2c-3.4,5.5-9.1,14-3.1,19.9c4.6,4.6,11.9,3.1,15.6-1.8
			c0.9-1.2,1.6-2.6,2-4.1C264.2,160.1,262.4,159.7,262.1,160.8L262.1,160.8z"/>
	</g>
</g>
<path class="st6" d="M114.7,73.5h168.1c11.6,0,21,9.5,21,21v98.1c0,11.6-9.4,21-21,21H114.7c-11.6,0-21-9.4-21-21v-98
	C93.7,83,103.2,73.5,114.7,73.5z"/>
</svg>
