<?xml version="1.0" encoding="utf-8"?>
<!-- Generator: Adobe Illustrator 27.3.1, SVG Export Plug-In . SVG Version: 6.00 Build 0)  -->
<svg version="1.1" id="Layer_1" xmlns:xodm="http://www.corel.com/coreldraw/odm/2003"
	 xmlns="http://www.w3.org/2000/svg" xmlns:xlink="http://www.w3.org/1999/xlink" x="0px" y="0px" viewBox="0 0 400 225"
	 style="enable-background:new 0 0 400 225;" xml:space="preserve">
<style type="text/css">
	.st0{fill-rule:evenodd;clip-rule:evenodd;fill:#55595C;}
	.st1{fill:#FFFFFF;}
	.st2{font-family:'TiroDevaHindi-Regular';}
	.st3{font-size:50px;}
</style>
<rect class="st0" width="400" height="225"/>
<text transform="matrix(1 0 0 1 59.62 53.54)" class="st1 st2 st3">Intermediate</text>
<text transform="matrix(1 0 0 1 80.37 109.26)" class="st1 st2 st3">Provisional</text>
<g id="_3157002626608">
</g>
<path class="st1" d="M235.2,124.8c3.2,0,5.7,2.8,5.7,6.2v74.7c0,3.4-2.6,6.2-5.7,6.2h-68.5c-3.2,0-5.7-2.8-5.7-6.2v-74.7
	c0-3.4,2.6-6.2,5.7-6.2H235.2z M166.7,118.6c-6.3,0-11.4,5.6-11.4,12.5v74.7c0,6.9,5.1,12.4,11.4,12.4h68.5
	c6.3,0,11.4-5.6,11.4-12.4v-74.7c0-6.9-5.1-12.4-11.4-12.4C235.2,118.6,166.7,118.6,166.7,118.6z M167.3,204.9
	c0,1.4,0.8,2.4,2.7,2.4h61.9c1.9,0,2.7-1.1,2.7-2.4c0-1.4-0.8-2.4-2.7-2.4H170C168.1,202.5,167.3,203.6,167.3,204.9z M167.3,196.1
	c0,1.4,0.8,2.4,2.7,2.4h61.9c1.9,0,2.7-1.1,2.7-2.4s-0.8-2.4-2.7-2.4H170C168.1,193.7,167.3,194.7,167.3,196.1z M167.3,187.2
	c0,1.4,0.8,2.4,2.7,2.4h61.9c1.9,0,2.7-1.1,2.7-2.4c0-1.4-0.8-2.4-2.7-2.4H170C168.1,184.8,167.3,185.9,167.3,187.2z M167.3,149.6
	c0,1.4,0.8,2.4,2.7,2.4h61.9c1.9,0,2.7-1.1,2.7-2.4c0-1.4-0.8-2.4-2.7-2.4H170C168.1,147.1,167.3,148.2,167.3,149.6z M167.3,140.7
	c0,1.4,0.8,2.4,2.7,2.4h61.9c1.9,0,2.7-1.1,2.7-2.4c0-1.4-0.8-2.4-2.7-2.4H170C168.1,138.2,167.3,139.3,167.3,140.7z M167.3,131.6
	c0,1.4,0.8,2.4,2.7,2.4h61.9c1.9,0,2.7-1.1,2.7-2.4c0-1.4-0.8-2.4-2.7-2.4H170C168.1,129.2,167.3,130.2,167.3,131.6z M167.3,179.4
	c0-1.1,0.8-1.9,1.9-1.9h34.4c1.1,0,1.9,0.9,1.9,1.9s-0.8,1.9-1.9,1.9h-34.4C168.1,181.3,167.3,180.5,167.3,179.4z M167.3,157.5
	c0-1.1,0.8-1.9,1.9-1.9h34.4c1.1,0,1.9,0.9,1.9,1.9c0,1.1-0.8,1.9-1.9,1.9h-34.4C168.1,159.4,167.3,158.6,167.3,157.5z M167.3,172.2
	c0-1.1,0.8-1.9,1.9-1.9H196c1.1,0,1.9,0.9,1.9,1.9c0,1.1-0.8,1.9-1.9,1.9h-26.8C168.1,174.1,167.3,173.3,167.3,172.2z M167.3,164.7
	c0-1.1,0.8-1.9,1.9-1.9H196c1.1,0,1.9,0.9,1.9,1.9c0,1.1-0.8,1.9-1.9,1.9h-26.8C168.1,166.6,167.3,165.7,167.3,164.7z"/>
<g id="_3157002620464">
</g>
</svg>
